<svg width="20" height="68" viewBox="0 0 20 68" fill="none" xmlns="http://www.w3.org/2000/svg">
<path d="M18 4C16.8954 4 16 3.10457 16 2C16 0.895432 16.8954 0 18 0C19.1046 0 20 0.895432 20 2C20 3.10457 19.1046 4 18 4Z" fill="#FF9B62"/>
<path d="M18 12C16.8954 12 16 11.1046 16 10C16 8.89543 16.8954 8 18 8C19.1046 8 20 8.89543 20 10C20 11.1046 19.1046 12 18 12Z" fill="#FF9B62"/>
<path d="M18 20C16.8954 20 16 19.1046 16 18C16 16.8954 16.8954 16 18 16C19.1046 16 20 16.8954 20 18C20 19.1046 19.1046 20 18 20Z" fill="#FF9B62"/>
<path d="M18 28C16.8954 28 16 27.1046 16 26C16 24.8954 16.8954 24 18 24C19.1046 24 20 24.8954 20 26C20 27.1046 19.1046 28 18 28Z" fill="#FF9B62"/>
<path d="M18 36C16.8954 36 16 35.1046 16 34C16 32.8954 16.8954 32 18 32C19.1046 32 20 32.8954 20 34C20 35.1046 19.1046 36 18 36Z" fill="#FF9B62"/>
<path d="M18 44C16.8954 44 16 43.1046 16 42C16 40.8954 16.8954 40 18 40C19.1046 40 20 40.8954 20 42C20 43.1046 19.1046 44 18 44Z" fill="#FF9B62"/>
<path d="M18 52C16.8954 52 16 51.1046 16 50C16 48.8954 16.8954 48 18 48C19.1046 48 20 48.8954 20 50C20 51.1046 19.1046 52 18 52Z" fill="#FF9B62"/>
<path d="M18 60C16.8954 60 16 59.1046 16 58C16 56.8954 16.8954 56 18 56C19.1046 56 20 56.8954 20 58C20 59.1046 19.1046 60 18 60Z" fill="#FF9B62"/>
<path d="M18 68C16.8954 68 16 67.1046 16 66C16 64.8954 16.8954 64 18 64C19.1046 64 20 64.8954 20 66C20 67.1046 19.1046 68 18 68Z" fill="#FF9B62"/>
<path d="M10 4C8.89543 4 8 3.10457 8 2C8 0.895432 8.89543 0 10 0C11.1046 0 12 0.895432 12 2C12 3.10457 11.1046 4 10 4Z" fill="#FF9B62"/>
<path d="M10 12C8.89543 12 8 11.1046 8 10C8 8.89543 8.89543 8 10 8C11.1046 8 12 8.89543 12 10C12 11.1046 11.1046 12 10 12Z" fill="#FF9B62"/>
<path d="M10 20C8.89543 20 8 19.1046 8 18C8 16.8954 8.89543 16 10 16C11.1046 16 12 16.8954 12 18C12 19.1046 11.1046 20 10 20Z" fill="#FF9B62"/>
<path d="M10 28C8.89543 28 8 27.1046 8 26C8 24.8954 8.89543 24 10 24C11.1046 24 12 24.8954 12 26C12 27.1046 11.1046 28 10 28Z" fill="#FF9B62"/>
<path d="M10 36C8.89543 36 8 35.1046 8 34C8 32.8954 8.89543 32 10 32C11.1046 32 12 32.8954 12 34C12 35.1046 11.1046 36 10 36Z" fill="#FF9B62"/>
<path d="M10 44C8.89543 44 8 43.1046 8 42C8 40.8954 8.89543 40 10 40C11.1046 40 12 40.8954 12 42C12 43.1046 11.1046 44 10 44Z" fill="#FF9B62"/>
<path d="M10 52C8.89543 52 8 51.1046 8 50C8 48.8954 8.89543 48 10 48C11.1046 48 12 48.8954 12 50C12 51.1046 11.1046 52 10 52Z" fill="#FF9B62"/>
<path d="M10 60C8.89543 60 8 59.1046 8 58C8 56.8954 8.89543 56 10 56C11.1046 56 12 56.8954 12 58C12 59.1046 11.1046 60 10 60Z" fill="#FF9B62"/>
<path d="M10 68C8.89543 68 8 67.1046 8 66C8 64.8954 8.89543 64 10 64C11.1046 64 12 64.8954 12 66C12 67.1046 11.1046 68 10 68Z" fill="#FF9B62"/>
<path d="M2 20C0.89543 20 0 19.1046 0 18C0 16.8954 0.89543 16 2 16C3.10457 16 4 16.8954 4 18C4 19.1046 3.10457 20 2 20Z" fill="#FF9B62"/>
<path d="M2 28C0.89543 28 0 27.1046 0 26C0 24.8954 0.89543 24 2 24C3.10457 24 4 24.8954 4 26C4 27.1046 3.10457 28 2 28Z" fill="#FF9B62"/>
<path d="M2 36C0.89543 36 0 35.1046 0 34C0 32.8954 0.89543 32 2 32C3.10457 32 4 32.8954 4 34C4 35.1046 3.10457 36 2 36Z" fill="#FF9B62"/>
<path d="M2 44C0.89543 44 0 43.1046 0 42C0 40.8954 0.89543 40 2 40C3.10457 40 4 40.8954 4 42C4 43.1046 3.10457 44 2 44Z" fill="#FF9B62"/>
<path d="M2 52C0.89543 52 0 51.1046 0 50C0 48.8954 0.89543 48 2 48C3.10457 48 4 48.8954 4 50C4 51.1046 3.10457 52 2 52Z" fill="#FF9B62"/>
<path d="M2 60C0.89543 60 0 59.1046 0 58C0 56.8954 0.89543 56 2 56C3.10457 56 4 56.8954 4 58C4 59.1046 3.10457 60 2 60Z" fill="#FF9B62"/>
<path d="M2 68C0.89543 68 0 67.1046 0 66C0 64.8954 0.89543 64 2 64C3.10457 64 4 64.8954 4 66C4 67.1046 3.10457 68 2 68Z" fill="#FF9B62"/>
</svg>
