<svg width="80" height="103" viewBox="0 0 80 103" fill="none" xmlns="http://www.w3.org/2000/svg">
<path d="M39.0721 0.251322C36.4656 1.01655 33.859 3.33615 32.8547 5.84705L32.3047 7.21011L32.1612 37.9149L8.63042 38.0584L7.43475 38.6323C5.92821 39.3975 4.46949 40.8562 3.70426 42.3628C3.226 43.3671 3.13034 43.8932 3.13034 45.7106C3.13034 47.5042 3.226 48.0542 3.72818 49.0585C4.46949 50.589 5.92821 52.0238 7.43475 52.789L8.63042 53.3629L32.1851 53.5064V59.8195C32.1851 65.9892 32.1851 66.1327 32.6634 66.0848C33.1177 66.0609 33.1416 65.8935 33.1416 59.7717V53.4825L41.583 53.5303L50.0006 53.6021L50.0723 66.7305L50.1201 79.835L49.2114 81.222C48.3266 82.5372 47.9201 83.6373 47.6092 85.646L47.4418 86.6025L46.9396 85.8851C46.1505 84.7612 44.357 83.159 43.2809 82.6568C41.4157 81.7481 39.8374 82.2503 40.6504 83.4938C41.2483 84.3786 41.1048 84.6416 40.3396 84.0677C39.4308 83.3981 39.12 83.6373 39.12 85.0242C39.12 86.4829 40.0048 88.3004 41.4157 89.6634L42.4439 90.6917L41.5591 91.0026C40.22 91.4569 38.1874 92.9156 37.7808 93.7048C37.5895 94.0874 37.446 94.6374 37.4939 94.9244C37.5656 95.3787 37.7091 95.4505 38.5939 95.4026C39.7895 95.3548 39.8613 95.5461 38.8808 96.0961C37.446 96.9092 38.9048 97.8418 41.5352 97.8179C42.7787 97.8179 43.4005 97.6505 44.644 97.0527C45.4809 96.6461 46.5092 96.0244 46.9396 95.6896L47.7049 95.0678L48.1114 96.5266C48.9245 99.4201 51.5071 102.027 53.5876 102.027C54.3767 102.027 54.4724 101.979 54.3289 101.548C53.8267 99.9223 53.8267 99.9462 54.6158 100.687C55.4767 101.477 55.9789 101.405 56.3615 100.424C56.7202 99.4918 56.2659 97.6266 55.2854 95.9766L54.4963 94.6613L55.7637 94.4939C57.2941 94.3026 59.7333 93.1548 60.4029 92.2939C60.6659 91.9591 60.8811 91.433 60.8811 91.1221C60.8811 90.6678 60.7377 90.5721 59.9963 90.5004L59.0876 90.4047L59.9963 89.9982C61.0007 89.52 61.0964 89.1134 60.379 88.4199C59.5659 87.6786 57.5094 87.3438 55.5963 87.6547C54.7115 87.7982 53.8267 87.9895 53.6115 88.0612C53.3245 88.1808 53.4441 87.7264 54.0658 86.4351C55.1658 84.1394 55.5724 82.059 55.1658 80.7677C54.7832 79.4763 54.1376 79.1176 53.468 79.835C53.2049 80.122 52.9897 80.4329 52.9897 80.5524C52.9897 80.6481 52.8941 80.7437 52.7506 80.7437C52.631 80.7437 52.5593 80.3372 52.5832 79.8589C52.631 79.0937 52.5593 78.9502 52.1528 78.9742C51.8897 78.9981 51.4832 79.0937 51.2441 79.1894C50.8614 79.3568 50.8375 78.6872 50.8854 66.4914L50.9571 53.6021L74.3922 53.3629L75.7553 52.6934C77.3575 51.9042 78.6488 50.5411 79.4618 48.7716C79.9879 47.6237 80.0597 47.2172 79.964 45.3998C79.8923 43.678 79.7488 43.1041 79.1749 42.0519C78.3857 40.6171 77.1662 39.4214 75.6596 38.6084C74.6313 38.0584 74.5596 38.0584 62.7942 37.9388L50.9571 37.8192L50.718 6.97098L49.9527 5.36878C48.4701 2.21222 45.4809 0.179581 42.0852 0.0121879C40.9135 -0.0356389 39.7656 0.0600146 39.0721 0.251322ZM45.0505 1.59047C46.7005 2.30787 48.6853 4.46008 49.4506 6.3014L50.0006 7.68838V37.8192L41.5591 37.891L33.1177 37.9388L33.2612 6.97098L33.9308 5.70357C35.1264 3.40789 36.8243 1.90134 38.9526 1.20786C40.4591 0.705676 43.4961 0.896983 45.0505 1.59047ZM75.1096 39.2301C76.8553 40.0432 77.7401 40.8801 78.5531 42.5302C79.6053 44.6106 79.6053 46.8107 78.5531 48.8911C77.7401 50.5411 76.8553 51.402 75.0857 52.2151L73.8661 52.7651L8.63042 52.6455L7.64997 52.1194C5.33037 50.8759 3.72818 48.1976 3.72818 45.5911C3.72818 42.7215 5.95212 39.7323 8.74999 38.8714C9.08477 38.7758 23.8872 38.6801 41.6309 38.6801L73.9139 38.6562L75.1096 39.2301ZM51.3636 83.8525L51.2919 84.4264L51.818 83.8764C52.2962 83.3742 52.368 83.3503 52.7267 83.709C53.3006 84.3068 53.181 86.459 52.4636 87.8938L51.8897 89.0656L53.755 88.946C55.2376 88.8265 55.7159 88.8982 56.218 89.2091C56.9593 89.6873 56.9833 90.1656 56.2898 90.5004L55.7398 90.7634H56.2898C56.9833 90.7874 56.9833 91.5048 56.2659 92.1743C55.5963 92.7961 54.1615 93.4178 53.3484 93.4178C53.0136 93.4178 52.7506 93.4417 52.7506 93.4656C52.7506 93.5135 53.0136 94.0635 53.3484 94.7091C54.018 96.0483 54.1137 97.2918 53.5876 97.7222C53.2767 97.9614 53.1332 97.9375 52.7267 97.5788C52.2484 97.1483 52.2484 97.1483 52.3919 97.794C52.5354 98.3679 52.4876 98.4396 52.0093 98.4396C50.6462 98.4396 48.6375 96.2874 48.3027 94.47L48.1592 93.7048L47.0831 94.5178C46.5092 94.9722 45.9353 95.3309 45.8635 95.3309C45.7679 95.3548 45.2179 95.4505 44.62 95.57C43.8548 95.7135 43.3287 95.6657 42.7787 95.4505C41.8939 95.0678 41.7983 94.757 42.42 94.3983C42.7787 94.1831 42.7309 94.1591 42.1809 94.1352C41.32 94.1352 41.1526 93.8005 41.6309 92.9874C42.0613 92.2939 43.8309 91.0265 44.4048 91.0265C44.5722 91.0265 44.4048 90.6917 43.9744 90.2373C43.0418 89.2569 42.4678 88.133 42.4678 87.2482C42.4678 86.3873 42.6592 86.196 43.2092 86.5069C43.6157 86.6982 43.6396 86.6503 43.52 86.0047C43.3766 85.3351 43.4005 85.2873 44.07 85.2873C44.907 85.2873 46.3896 86.196 47.2983 87.2721L47.9201 88.0373L48.0875 87.3199C48.4701 85.6221 48.781 84.9525 49.6419 84.0677C50.6701 82.9677 51.4832 82.872 51.3636 83.8525Z" fill="white"/>
<path d="M19.1284 41.8367C19.0567 42.0519 19.0327 43.2715 19.0806 44.5389C19.1523 46.715 19.2001 46.8585 19.8219 47.4085C20.3241 47.8389 20.7784 47.9824 21.6154 47.9824C23.6241 47.9585 24.0546 47.2411 24.0546 43.9171C24.0546 42.0758 23.9828 41.5019 23.7676 41.5736C23.5524 41.6454 23.4328 42.4345 23.385 44.0845C23.3132 46.8346 23.0024 47.3607 21.5197 47.3607C20.1567 47.3607 19.8697 46.8585 19.798 44.2041C19.7023 41.9562 19.4632 41.0236 19.1284 41.8367Z" fill="white"/>
<path d="M29.722 41.6932C29.6264 41.7649 29.5546 43.2237 29.5546 44.9215C29.5546 47.4802 29.6025 47.9824 29.9133 47.9824C30.2003 47.9824 30.272 47.5281 30.272 45.4237V42.8889L32.1851 45.4237C33.2373 46.8346 34.2177 47.9824 34.3373 47.9824C34.4808 47.9824 34.5764 46.6911 34.5764 44.7541C34.5764 42.9845 34.4808 41.5258 34.3612 41.5258C33.9786 41.5258 33.859 42.2432 33.859 44.4432V46.6194L31.946 44.0845C30.8938 42.6736 29.9851 41.5258 29.9372 41.5258C29.9133 41.5258 29.7938 41.5975 29.722 41.6932Z" fill="white"/>
<path d="M10.2326 44.8019C10.2804 46.9541 10.4 47.8628 10.6152 47.9346C10.8305 48.0063 10.9022 47.6237 10.9022 46.5715V45.1128H12.4805C13.6283 45.1128 14.0348 45.0411 13.9631 44.8019C13.8914 44.6345 13.2935 44.4911 12.3848 44.4432L10.9022 44.3715V42.2432H12.5761C13.5327 42.2432 14.2501 42.1475 14.2501 42.0041C14.2501 41.8606 13.4131 41.7649 12.2174 41.7649H10.1609L10.2326 44.8019Z" fill="white"/>
<path d="M40.1961 47.8629L42.1809 47.9346C43.7353 47.9824 44.1657 47.9346 44.094 47.6955C44.0222 47.5041 43.4244 47.3607 42.3961 47.3128L40.7939 47.2411V45.1128H42.3483C43.5679 45.1128 43.9026 45.0411 43.9026 44.7541C43.9026 44.4671 43.5679 44.3954 42.3483 44.3954H40.7939V42.2432H42.4678C43.4244 42.2432 44.1418 42.1475 44.1418 42.0041C44.1418 41.8606 43.3048 41.7649 42.1091 41.7649H40.0526L40.1961 47.8629Z" fill="white"/>
<path d="M41.5591 37.891L50.981 47.9346C52.3919 47.9824 52.7745 47.9107 53.3006 47.5041C54.0897 46.8824 54.1615 45.8063 53.4919 45.1367C53.0854 44.7302 53.0615 44.6345 53.3723 44.3715C53.8506 43.9889 53.8028 42.6258 53.2767 42.1715C52.9419 41.8606 52.368 41.7649 50.981 41.7649H49.1397L41.5591 37.891ZM52.7028 42.5302C52.8702 42.6976 52.9897 43.0323 52.9897 43.3193C52.9897 44.1084 52.5115 44.3954 51.1484 44.3954H49.881V42.2432H51.1484C51.8419 42.2432 52.5354 42.3628 52.7028 42.5302ZM52.9897 45.4476C53.7789 46.428 52.6549 47.552 50.9571 47.4563L50.0006 47.3846L49.9288 46.2367L49.8571 45.1128H51.268C52.2245 45.1128 52.7984 45.2324 52.9897 45.4476Z" fill="white"/>
<path d="M59.2072 44.8737C59.2072 47.4802 59.255 47.9824 59.5659 47.9824C59.8529 47.9824 59.9246 47.6715 59.9246 46.6433V45.328L60.9529 45.3998C61.8855 45.4715 62.0051 45.5672 62.6747 46.715C63.0812 47.4085 63.5355 47.9585 63.7029 47.9824C64.1095 47.9824 64.0616 47.7672 63.3203 46.4041L62.6507 45.2085L63.2007 44.778C63.6073 44.4911 63.7507 44.1324 63.7507 43.4389C63.7507 42.1236 63.1529 41.7649 60.9529 41.7649H59.2072V44.8737ZM62.579 42.4823C63.1051 42.7693 63.2007 43.8932 62.7464 44.3476C62.579 44.515 61.8855 44.6345 61.192 44.6345H59.9246V42.2432H61.0246C61.6225 42.2432 62.3159 42.3628 62.579 42.4823Z" fill="white"/>
<path d="M69.2508 47.9824H71.1639C72.6944 47.9824 73.077 47.9107 73.077 47.6237C73.077 47.3368 72.7422 47.265 71.403 47.265H69.7291V45.1367L71.3552 45.065C73.4357 44.9693 73.4357 44.5389 71.3313 44.4432L69.7052 44.3715L69.8487 42.3628L71.4748 42.291C73.7226 42.1954 73.4835 41.7649 71.1639 41.7649H69.2508V47.9824Z" fill="white"/>
<path d="M1.64771 69.9588C1.57597 70.2218 1.43249 70.3892 1.31293 70.3175C0.954226 70.1023 0.762919 70.9632 1.07379 71.4414C1.28901 71.8001 1.2651 71.8958 1.02597 71.8958C0.475959 71.8958 -0.121876 72.4936 0.0216047 72.8762C0.380305 73.8089 2.8673 74.1436 3.56078 73.3784C4.13471 72.7567 4.06296 71.3936 3.4173 70.4371C2.77164 69.4805 1.83902 69.2175 1.64771 69.9588Z" fill="white"/>
<path d="M29.8894 72.1827C29.6024 72.3262 29.0524 72.9719 28.6937 73.6654C28.072 74.7654 28.0003 75.1002 28.0003 77.1567V79.4285L26.8524 78.6633C24.9154 77.348 22.3089 76.8937 21.4958 77.7067C21.1132 78.0893 21.1132 78.1372 21.6632 78.7111C22.3089 79.4046 22.1893 79.7394 21.448 79.2611C20.7545 78.8307 20.3719 79.285 20.5871 80.2416C20.8741 81.509 22.6197 83.2068 24.7241 84.259C24.7719 84.259 24.3176 84.7373 23.7198 85.2873C22.2371 86.6503 21.6154 87.7264 21.711 88.683C21.7828 89.5199 21.998 89.5917 23.3371 89.233L23.935 89.0656L23.3611 89.5439C21.8306 90.7873 24.4611 91.3135 26.6611 90.1895C27.8807 89.5917 29.1242 88.4917 29.9372 87.3438L30.4394 86.6503L31.0612 87.7504C31.8264 89.0656 32.8786 89.9504 34.4569 90.6917C36.5134 91.6721 38.4265 91.2656 37.3504 90.0939C36.7525 89.4482 36.896 89.3047 37.733 89.7352C38.4504 90.0939 38.4982 90.0939 38.8091 89.7113C39.383 88.8982 38.7134 87.3438 37.1112 85.6938L36.0591 84.5938L36.9199 84.3068C37.4221 84.1394 38.4026 83.3981 39.1678 82.6329C40.2678 81.5329 40.5548 81.1024 40.5548 80.5046C40.5548 79.7394 40.5309 79.7394 39.67 79.8829L38.7613 80.0263L39.4787 79.4285C40.0526 78.9502 40.1482 78.7589 39.933 78.4241C39.2874 77.372 36.3938 77.6589 34.3134 78.9742L33.309 79.5959L33.4764 78.9024C34.0982 76.1045 33.8351 73.6654 32.8068 72.4458C32.1373 71.6806 31.5633 71.824 31.3481 72.8284C31.2525 73.2349 31.0851 73.5219 30.9655 73.4262C30.8459 73.3545 30.7981 73.0915 30.8699 72.8762C31.0612 72.2545 30.5112 71.8958 29.8894 72.1827ZM31.7068 79.2611C31.7068 79.4524 31.5394 79.8111 31.3242 80.0502C31.1329 80.2655 30.9655 80.8872 30.9416 81.4372C30.9416 81.9872 30.8459 82.4177 30.7264 82.4177C30.4394 82.4177 30.5351 79.285 30.822 78.9024C31.0851 78.5437 31.7068 78.7828 31.7068 79.2611ZM30.1764 79.9068C30.272 80.0981 30.2003 80.4329 30.0329 80.6242C29.7459 80.959 29.7938 81.6525 30.1525 82.7764C30.3199 83.2546 30.2959 83.2546 29.9372 82.8003C29.722 82.5372 29.5546 82.1546 29.5546 81.9633C29.5546 81.7481 29.3872 81.2698 29.1959 80.8872C28.9807 80.5046 28.885 80.0263 28.9329 79.8589C29.1003 79.4285 30.009 79.4763 30.1764 79.9068ZM33.0938 81.509C33.1655 81.8916 31.3242 84.0916 30.9177 84.0916C30.822 84.0916 31.0612 83.6612 31.4916 83.159C31.8981 82.6329 32.1612 82.0829 32.0655 81.9394C31.8025 81.509 32.1373 80.9351 32.5916 81.0307C32.8308 81.0785 33.046 81.2937 33.0938 81.509ZM28.072 82.8003C28.1916 83.0394 28.622 83.2068 29.0524 83.2307C29.459 83.2307 29.7938 83.3503 29.7938 83.4699C29.7938 83.5894 29.3872 83.6133 28.909 83.5177C28.4068 83.4459 27.8089 83.3742 27.5937 83.3742C27.3307 83.3742 27.1633 83.1829 27.1633 82.8959C27.1633 82.322 27.7611 82.2503 28.072 82.8003Z" fill="white"/>
<path d="M70.4465 82.3938C68.7247 83.3264 68.6291 85.0003 70.2313 85.8134C71.1878 86.3156 72.4313 86.3634 72.7661 85.9329C72.9096 85.7895 73.0052 85.2873 73.0052 84.8568C73.0052 84.259 72.8617 83.972 72.4552 83.8046C72.0726 83.6133 71.953 83.3742 71.9769 82.8242C72.0009 81.8916 71.5943 81.7959 70.4465 82.3938Z" fill="white"/>
</svg>
