<svg width="109" height="135" viewBox="0 0 109 135" fill="none" xmlns="http://www.w3.org/2000/svg">
<path d="M0 135H108.633V0H0V135ZM17.1387 4.66699C17.1387 4.77246 16.8486 5.1416 16.5059 5.51074C15.3721 6.72363 14.0537 9.17578 13.5527 11.0215C13.3154 11.9971 13.0254 12.8672 12.9199 12.999C12.8408 13.1045 12.0762 13.3682 11.2588 13.5791C9.33398 14.0801 7.01367 15.2666 5.56348 16.4531C4.93066 16.9805 4.37695 17.4023 4.32422 17.4023C4.27148 17.4023 4.21875 14.502 4.21875 10.9424V4.48242H10.6787C14.2383 4.48242 17.1387 4.56152 17.1387 4.66699ZM32.7217 5.48438C35.4902 6.80273 37.7314 9.41309 38.6016 12.3135L38.7861 12.9199H17.666L17.8242 12.1816C18.3516 9.94043 20.8037 6.9082 22.9658 5.77441C25.0752 4.69336 26.1035 4.48242 28.6084 4.58789C30.6387 4.64062 31.2715 4.79883 32.7217 5.48438ZM42.7939 5.32617C42.3721 5.80078 41.8447 6.43359 41.6338 6.72363C41.2646 7.25098 41.2383 7.22461 40.1309 5.87988L39.0234 4.48242H43.6113L42.7939 5.32617ZM58.957 5.53711C61.6729 6.88184 63.9141 9.49219 64.7314 12.3135L64.8896 12.9199H43.7432L43.9014 12.3135C44.6396 9.80859 46.5908 7.27734 48.8584 5.93262C50.7832 4.8252 52.3125 4.48242 54.9229 4.58789C56.874 4.66699 57.4805 4.79883 58.957 5.53711ZM68.502 5.87988C67.3945 7.22461 67.3682 7.25098 66.999 6.72363C66.7881 6.43359 66.2607 5.80078 65.8389 5.32617L65.0215 4.48242H69.6094L68.502 5.87988ZM85.0605 5.53711C87.8555 6.9082 89.9912 9.41309 90.835 12.3135L90.9932 12.9199H69.8467L70.0049 12.3135C70.3477 11.2588 71.4551 9.17578 72.167 8.33203C74.3291 5.74805 77.3877 4.42969 80.9736 4.56152C82.9248 4.64062 83.5049 4.77246 85.0605 5.53711ZM104.414 10.9424C104.414 14.502 104.361 17.4023 104.309 17.4023C104.256 17.4023 103.702 16.9805 103.069 16.4531C101.619 15.2666 99.2988 14.0801 97.374 13.5791C96.5566 13.3682 95.792 13.1045 95.7129 12.999C95.6074 12.8672 95.3174 11.9971 95.0801 11.0215C94.5791 9.17578 93.2607 6.72363 92.127 5.51074C91.7842 5.1416 91.4941 4.77246 91.4941 4.66699C91.4941 4.56152 94.3945 4.48242 97.9541 4.48242H104.414V10.9424ZM91.2305 117.598H17.4023V17.4023H91.2305V117.598ZM12.9199 28.2129C12.9199 40.2891 13.1572 39.3662 10.3623 37.9688C7.33008 36.4395 5.00977 33.2754 4.45605 29.7949C3.82324 25.8926 5.69531 21.6475 9.01758 19.459C10.0986 18.7207 12.0498 17.8242 12.8672 17.666C12.8936 17.666 12.9199 22.4121 12.9199 28.2129ZM98.5342 18.7734C101.329 20.1445 103.597 23.3613 104.124 26.6572C104.862 31.166 102.41 35.9121 98.2705 37.9688C95.4756 39.3662 95.7129 40.2891 95.7129 28.2393V17.6924L96.5039 17.9297C96.9521 18.0615 97.8486 18.4307 98.5342 18.7734ZM7.11914 41.3438C7.19824 41.3965 7.04004 41.5547 6.77637 41.7129C6.5127 41.8447 5.90625 42.3193 5.43164 42.7412C4.93066 43.1631 4.48242 43.5059 4.37695 43.5059C4.29785 43.5059 4.21875 42.4775 4.21875 41.2383V38.9971L5.61621 40.1309C6.35449 40.7373 7.04004 41.291 7.11914 41.3438ZM104.309 43.4268C104.229 43.5059 103.597 43.0576 102.858 42.4512L101.54 41.3174L102.516 40.6055C103.043 40.21 103.676 39.6826 103.887 39.4189C104.256 38.9707 104.282 39.1289 104.361 41.1328C104.414 42.3193 104.388 43.374 104.309 43.4268ZM12.9199 54.3164C12.9199 66.3926 13.1572 65.4697 10.3887 64.0723C6.19629 61.9893 3.77051 57.3223 4.50879 52.7871C4.93066 50.0186 6.64453 47.1709 8.70117 45.7471C9.46582 45.2197 12.4189 43.8223 12.8672 43.7695C12.8936 43.7695 12.9199 48.5156 12.9199 54.3164ZM98.8506 45.0879C101.435 46.4062 103.623 49.5967 104.124 52.7871C104.862 57.3486 102.463 61.9893 98.2705 64.0723C95.4756 65.4697 95.7129 66.3926 95.7129 54.3164V43.7959L96.7148 44.1387C97.2949 44.3496 98.2441 44.7715 98.8506 45.0879ZM6.75 67.21C7.25098 67.5 7.25098 67.5 6.75 67.79C6.48633 67.9482 5.80078 68.502 5.24707 69.0029L4.21875 69.9258V65.0742L5.24707 65.9971C5.80078 66.498 6.48633 67.0518 6.75 67.21ZM104.414 67.5264V69.9258L103.386 69.0029C102.832 68.502 102.146 67.9482 101.883 67.79C101.382 67.5 101.382 67.5 101.883 67.21C102.173 67.0254 102.832 66.498 103.333 66.0234C103.86 65.5488 104.309 65.127 104.361 65.127C104.388 65.127 104.414 66.208 104.414 67.5264ZM12.9199 80.6836V91.2041L11.918 90.8613C8.93848 89.8066 6.85547 88.0137 5.53711 85.4033C2.84766 80.1035 5.03613 73.5908 10.3623 70.9277C13.1572 69.5303 12.9199 68.6074 12.9199 80.6836ZM98.2705 70.9277C102.41 72.9844 104.862 77.6777 104.15 82.1074C103.491 86.2998 100.854 89.3848 96.7148 90.8613L95.7129 91.2041V80.6836C95.7129 68.6074 95.4756 69.5303 98.2705 70.9277ZM5.43164 92.2588C5.90625 92.6807 6.5127 93.1553 6.77637 93.2871C7.04004 93.4453 7.19824 93.6035 7.11914 93.6562C7.04004 93.709 6.35449 94.2627 5.61621 94.8691L4.21875 96.0029V93.7617C4.21875 92.5225 4.29785 91.4941 4.37695 91.4941C4.48242 91.4941 4.93066 91.8369 5.43164 92.2588ZM104.414 93.7617V96.0293L103.201 94.9482C102.516 94.3418 101.83 93.8672 101.672 93.8672C101.355 93.8672 103.887 91.5205 104.229 91.4941C104.335 91.4941 104.414 92.5225 104.414 93.7617ZM12.9199 106.761V117.308L12.1289 117.07C7.09277 115.62 3.63867 110.294 4.45605 105.205C5.00977 101.725 7.33008 98.5605 10.3623 97.0312C13.1572 95.6338 12.9199 94.7109 12.9199 106.761ZM98.2705 97.0312C101.276 98.5342 103.597 101.725 104.15 105.126C104.994 110.268 101.566 115.62 96.5039 117.07L95.7129 117.308V106.761C95.7129 94.7109 95.4756 95.6338 98.2705 97.0312ZM5.56348 118.547C7.01367 119.733 9.33398 120.92 11.2588 121.421C12.0762 121.632 12.8408 121.896 12.9199 122.001C13.0254 122.133 13.3154 123.003 13.5527 123.979C14.0537 125.824 15.3721 128.276 16.5059 129.489C16.8486 129.858 17.1387 130.228 17.1387 130.333C17.1387 130.438 14.2383 130.518 10.6787 130.518H4.21875V124.058C4.21875 120.498 4.27148 117.598 4.32422 117.598C4.37695 117.598 4.93066 118.02 5.56348 118.547ZM104.414 124.058V130.518H97.9541C94.3945 130.518 91.4941 130.438 91.4941 130.333C91.4941 130.228 91.7842 129.858 92.127 129.489C93.2607 128.276 94.5791 125.824 95.0801 123.979C95.3174 123.003 95.6074 122.133 95.7129 122.001C95.792 121.896 96.5566 121.632 97.374 121.421C99.2988 120.92 101.619 119.733 103.069 118.547C103.702 118.02 104.256 117.598 104.309 117.598C104.361 117.598 104.414 120.498 104.414 124.058ZM38.6016 122.66C37.7314 125.561 35.4639 128.197 32.7217 129.542C31.0869 130.333 30.7969 130.386 28.2129 130.386C25.5762 130.386 25.3389 130.333 23.5986 129.489C20.7773 128.092 18.6416 125.587 17.7979 122.66L17.6396 122.08H38.7861L38.6016 122.66ZM64.7314 122.66C64.2832 124.216 63.123 126.167 61.9365 127.354C56.1621 133.128 46.1689 130.544 43.9014 122.66L43.7432 122.08H64.8896L64.7314 122.66ZM90.835 122.66C90.3867 124.189 89.1738 126.272 88.0664 127.38C82.3184 133.128 72.4307 130.544 70.0312 122.66L69.8467 122.08H90.9932L90.835 122.66ZM42.7939 129.647L43.6113 130.518H39.0234L40.1309 129.12C41.2383 127.775 41.2646 127.749 41.6338 128.276C41.8447 128.566 42.3721 129.199 42.7939 129.647ZM69.0557 129.779L69.7148 130.518H65.0742L66.1553 129.305C66.7617 128.619 67.2363 127.96 67.2363 127.802C67.2363 127.67 67.5 127.881 67.8164 128.303C68.1328 128.725 68.6865 129.384 69.0557 129.779Z" fill="url(#paint0_linear_51_646)"/>
<path d="M33.6182 22.2539C29.083 23.6777 25.6553 27.1318 24.3633 31.5088C23.7832 33.46 23.7832 37.0723 24.3369 38.8389L24.7588 40.1309L23.8359 40.9219C20.4082 43.9277 21.1729 49.3857 25.2861 51.4688C26.4727 52.0752 27.0791 52.207 28.6084 52.207H30.5068L31.0869 53.7891C31.7461 55.6084 33.6182 57.7969 35.5957 59.0625C36.5713 59.6953 36.9141 60.0645 36.9141 60.5391C36.9141 61.251 36.835 61.2773 33.6182 61.6992C28.8721 62.332 27.0791 63.0703 24.8906 65.2324C22.2275 67.8955 21.6211 69.9785 21.6211 76.2539V80.6836H65.1533L65.0742 75.3311C64.9951 70.1895 64.9688 69.9521 64.2832 68.502C63.8877 67.6582 63.0176 66.3662 62.3057 65.6279C60.0117 63.1494 58.377 62.4375 53.5254 61.752C50.2822 61.3037 50.2295 61.2773 50.1504 60.5918C50.0713 60.0117 50.3086 59.748 51.627 58.8252C52.4971 58.2451 53.5781 57.3223 54.0264 56.7686C54.9229 55.6875 56.1621 53.2881 56.1621 52.6289C56.1621 52.2861 56.5049 52.207 57.9551 52.207C60.4072 52.207 61.5674 51.8115 62.9648 50.5459C64.4941 49.1221 65.127 47.751 65.127 45.7471C65.127 43.8223 64.5205 42.3721 63.1494 41.0537L62.1738 40.1045L62.5957 38.417C64.3096 31.6143 60.3018 24.4951 53.5781 22.4121C52.0225 21.9375 51.1523 21.8848 43.2686 21.9111C37.0986 21.9111 34.3828 22.0166 33.6182 22.2539ZM53.2881 27.1055C57.2695 29.0566 59.3525 33.4863 58.166 37.5205C57.7441 38.9443 57.6914 39.0234 56.8477 39.0234C56.2676 39.0234 55.793 38.8125 55.3447 38.3379C54.3691 37.2568 53.2354 36.9141 50.7832 36.9141C46.749 36.9141 43.7959 35.8857 41.2119 33.6182L39.8145 32.4053L38.3115 32.5635C35.0947 32.9326 31.9834 35.1738 30.9551 37.8633C30.5859 38.8389 30.4014 39.0234 29.7949 39.0234C29.1621 39.0234 29.0303 38.8652 28.793 37.8896C28.2393 35.8066 28.2129 35.2002 28.4502 33.8291C29.1094 30.4014 31.5352 27.6328 34.8047 26.6045C35.1738 26.499 39.208 26.4199 43.7695 26.4463C51.8115 26.499 52.1016 26.5254 53.2881 27.1055ZM39.5508 38.1006C42.4775 40.2363 46.1162 41.3965 50.0449 41.3965H52.2598L52.1543 46.459C52.0488 53.0244 51.9961 53.0771 47.7246 56.2412C46.1426 57.4014 45.6152 58.4824 45.6152 60.7236C45.6152 62.3848 45.5361 62.6221 44.5342 64.125L43.4531 65.707L42.4248 64.1777C41.6338 62.9912 41.3965 62.3584 41.3965 61.5146C41.3965 60.9082 41.2646 59.8008 41.1064 59.0889C40.8164 57.6914 40.1045 56.9004 37.2041 54.7646C36.5449 54.3164 35.7539 53.3936 35.4111 52.7607C34.8311 51.6533 34.8047 51.3633 34.8047 45.9316C34.8047 40.3682 34.8311 40.2363 35.4639 39.1553C36.0176 38.2061 37.3359 37.2041 38.0742 37.1777C38.1797 37.1777 38.8652 37.5996 39.5508 38.1006ZM30.3223 47.9883H29.2939C27.2373 47.9883 26.1299 47.1973 26.1035 45.7207C26.1035 44.2969 27.1055 43.5322 29.083 43.5059H30.3223V47.9883ZM60.1699 44.2441C60.9346 45.0088 60.9346 46.4854 60.1963 47.25C59.7744 47.6719 59.2734 47.8037 58.0869 47.8301L56.5576 47.8564L56.3994 43.4531L58.0078 43.5586C59.1943 43.6377 59.748 43.8223 60.1699 44.2441ZM40.8164 69.6357L43.4531 73.6172L48.832 65.6016L50.5723 65.7861C53.8945 66.1289 56.4785 66.6826 57.5596 67.2891C59.8271 68.5547 60.9082 70.9014 60.9082 74.4873V76.2012H26.1035V73.749C26.1035 70.9805 26.5254 69.7412 27.9492 68.3438C29.2412 67.0518 30.1641 66.6826 33.3545 66.1553C38.4434 65.3643 37.7314 65.0215 40.8164 69.6357Z" fill="url(#paint1_linear_51_646)"/>
<path d="M69.6094 26.1035H87.0117V21.8848H69.6094V26.1035Z" fill="url(#paint2_linear_51_646)"/>
<path d="M69.6094 34.8047H87.0117V30.5859H69.6094V34.8047Z" fill="url(#paint3_linear_51_646)"/>
<path d="M69.6094 43.5059H73.8281V39.2871H69.6094V43.5059Z" fill="url(#paint4_linear_51_646)"/>
<path d="M78.3105 43.5059H87.0117V39.2871H78.3105V43.5059Z" fill="url(#paint5_linear_51_646)"/>
<path d="M69.6094 52.207H87.0117V47.9883H69.6094V52.207Z" fill="url(#paint6_linear_51_646)"/>
<path d="M69.6094 60.9082H87.0117V56.6895H69.6094V60.9082Z" fill="url(#paint7_linear_51_646)"/>
<path d="M78.3105 74.0918H73.8281V78.3105H78.3105V100.195H82.5293L82.582 89.3057L82.6611 78.4424L87.0117 78.2842V74.1182L82.6611 73.96L82.5029 69.6094H78.3105V74.0918Z" fill="url(#paint8_linear_51_646)"/>
<path d="M21.6211 89.3848H65.127V84.9023H21.6211V89.3848Z" fill="url(#paint9_linear_51_646)"/>
<path d="M21.6211 98.0859H56.4258V93.6035H21.6211V98.0859Z" fill="url(#paint10_linear_51_646)"/>
<path d="M60.9082 98.0859H65.127V93.6035H60.9082V98.0859Z" fill="url(#paint11_linear_51_646)"/>
<path d="M30.4541 102.674C28.5029 103.412 26.8945 105.732 26.8945 107.842C26.8945 108.554 28.0811 113.326 28.3184 113.563C28.4238 113.695 32.1416 112.904 32.3789 112.72C32.4316 112.667 32.2207 111.665 31.9043 110.479C31.5879 109.292 31.377 108 31.4297 107.604C31.5088 106.998 31.6143 106.919 32.5635 106.919C33.5654 106.919 33.6445 106.972 35.332 109.424C37.5732 112.614 38.417 113.115 41.5811 113.115C43.9541 113.115 45.2197 112.693 46.3271 111.48C47.0654 110.689 47.7246 109.134 47.7246 108.158C47.7246 107.13 48.252 106.734 49.4648 106.84C50.5459 106.919 50.6514 107.051 51.416 109.187C51.9961 110.821 53.209 112.219 54.501 112.746C55.1074 113.01 56.7158 113.115 60.249 113.115H65.127V108.896H60.6709C57.4277 108.896 56.1621 108.817 55.9775 108.554C55.8193 108.396 55.5029 107.631 55.2656 106.919C54.6064 104.862 53.6572 103.649 52.1279 102.938C48.3311 101.171 44.1387 103.175 43.5322 107.051C43.4004 107.815 43.1367 108.527 42.9521 108.659C42.7412 108.791 42.0557 108.87 41.3965 108.844C40.21 108.765 40.21 108.765 38.5488 106.312C36.4922 103.307 35.4639 102.542 33.1699 102.41C32.1152 102.331 31.1396 102.437 30.4541 102.674Z" fill="url(#paint12_linear_51_646)"/>
<path d="M69.6094 113.115H73.8281V108.896H69.6094V113.115Z" fill="url(#paint13_linear_51_646)"/>
<defs>
<linearGradient id="paint0_linear_51_646" x1="54.3164" y1="0" x2="54.3164" y2="135" gradientUnits="userSpaceOnUse">
<stop stop-color="#682B07"/>
<stop offset="1" stop-color="#9C4B1C"/>
</linearGradient>
<linearGradient id="paint1_linear_51_646" x1="54.3164" y1="0" x2="54.3164" y2="135" gradientUnits="userSpaceOnUse">
<stop stop-color="#682B07"/>
<stop offset="1" stop-color="#9C4B1C"/>
</linearGradient>
<linearGradient id="paint2_linear_51_646" x1="54.3164" y1="0" x2="54.3164" y2="135" gradientUnits="userSpaceOnUse">
<stop stop-color="#682B07"/>
<stop offset="1" stop-color="#9C4B1C"/>
</linearGradient>
<linearGradient id="paint3_linear_51_646" x1="54.3164" y1="0" x2="54.3164" y2="135" gradientUnits="userSpaceOnUse">
<stop stop-color="#682B07"/>
<stop offset="1" stop-color="#9C4B1C"/>
</linearGradient>
<linearGradient id="paint4_linear_51_646" x1="54.3164" y1="0" x2="54.3164" y2="135" gradientUnits="userSpaceOnUse">
<stop stop-color="#682B07"/>
<stop offset="1" stop-color="#9C4B1C"/>
</linearGradient>
<linearGradient id="paint5_linear_51_646" x1="54.3164" y1="0" x2="54.3164" y2="135" gradientUnits="userSpaceOnUse">
<stop stop-color="#682B07"/>
<stop offset="1" stop-color="#9C4B1C"/>
</linearGradient>
<linearGradient id="paint6_linear_51_646" x1="54.3164" y1="0" x2="54.3164" y2="135" gradientUnits="userSpaceOnUse">
<stop stop-color="#682B07"/>
<stop offset="1" stop-color="#9C4B1C"/>
</linearGradient>
<linearGradient id="paint7_linear_51_646" x1="54.3164" y1="0" x2="54.3164" y2="135" gradientUnits="userSpaceOnUse">
<stop stop-color="#682B07"/>
<stop offset="1" stop-color="#9C4B1C"/>
</linearGradient>
<linearGradient id="paint8_linear_51_646" x1="54.3164" y1="0" x2="54.3164" y2="135" gradientUnits="userSpaceOnUse">
<stop stop-color="#682B07"/>
<stop offset="1" stop-color="#9C4B1C"/>
</linearGradient>
<linearGradient id="paint9_linear_51_646" x1="54.3164" y1="0" x2="54.3164" y2="135" gradientUnits="userSpaceOnUse">
<stop stop-color="#682B07"/>
<stop offset="1" stop-color="#9C4B1C"/>
</linearGradient>
<linearGradient id="paint10_linear_51_646" x1="54.3164" y1="0" x2="54.3164" y2="135" gradientUnits="userSpaceOnUse">
<stop stop-color="#682B07"/>
<stop offset="1" stop-color="#9C4B1C"/>
</linearGradient>
<linearGradient id="paint11_linear_51_646" x1="54.3164" y1="0" x2="54.3164" y2="135" gradientUnits="userSpaceOnUse">
<stop stop-color="#682B07"/>
<stop offset="1" stop-color="#9C4B1C"/>
</linearGradient>
<linearGradient id="paint12_linear_51_646" x1="54.3164" y1="0" x2="54.3164" y2="135" gradientUnits="userSpaceOnUse">
<stop stop-color="#682B07"/>
<stop offset="1" stop-color="#9C4B1C"/>
</linearGradient>
<linearGradient id="paint13_linear_51_646" x1="54.3164" y1="0" x2="54.3164" y2="135" gradientUnits="userSpaceOnUse">
<stop stop-color="#682B07"/>
<stop offset="1" stop-color="#9C4B1C"/>
</linearGradient>
</defs>
</svg>
