<svg width="113" height="135" viewBox="0 0 113 135" fill="none" xmlns="http://www.w3.org/2000/svg">
<path d="M54.5898 0.896484C52.1113 2.24121 50.3183 3.71777 48.8944 5.64258L47.6025 7.35645L45.8359 6.45996C44.8866 5.98535 43.5683 5.43164 42.9355 5.27344C41.2216 4.79883 38.2421 4.50879 36.9765 4.66699C35.9745 4.79883 35.8163 4.93066 34.9462 6.43359C33.8652 8.30566 32.9423 10.8896 32.7314 12.709C32.6523 13.4209 32.4941 13.9482 32.415 13.8955C28.6708 11.8916 25.4013 10.9688 22.3427 11.127L20.7079 11.2061L19.5741 13.3418C18.0185 16.1895 17.3593 18.8789 17.3593 22.3066V24.9961L15.3026 25.1807C14.1689 25.2861 11.7167 25.6816 9.84464 26.0508L6.41691 26.7627L6.46964 28.7402C6.54874 31.0869 6.94425 32.8535 7.76163 34.752L8.36808 36.1494L7.31339 37.5205C5.04581 40.3682 3.99112 43.6904 4.28116 47.0127L4.43937 48.8057L3.14737 50.335C0.721593 53.2617 -0.201259 56.083 0.0360461 59.8535C0.167882 62.3057 0.800695 64.2041 2.06632 66.1025L2.85734 67.2363L2.46183 68.8975C1.72355 71.9561 2.03995 74.8037 3.43741 77.7305C4.4921 79.9717 6.94425 82.4502 9.10636 83.4785L10.7411 84.2432V85.4297C10.7675 87.1172 11.4267 89.4639 12.4023 91.2832C13.9579 94.21 17.9921 97.2422 21.0243 97.7168C21.6835 97.8223 22.079 98.0068 22.0263 98.1914C21.7099 98.9561 7.788 134.394 7.68253 134.684C7.57706 134.921 9.21183 135 15.329 135H23.1073L24.7157 130.834C25.6122 128.566 28.0907 122.238 30.2265 116.807L34.1288 106.919L35.5527 106.734C36.3437 106.629 37.5038 106.392 38.1366 106.233L39.2704 105.917L40.5097 107.13C42.8564 109.397 46.2841 111.006 48.7626 111.006H49.7909V135H62.9745V111.006H64.0029C66.455 111.006 69.9091 109.397 72.203 107.156L73.4159 105.996L75.2353 106.365C76.2636 106.576 77.4238 106.787 77.872 106.84C78.7157 106.919 77.9247 105.047 88.0497 130.834L89.6581 135H97.4365C103.554 135 105.188 134.921 105.083 134.657C104.977 134.367 91.0292 98.9297 90.7392 98.1914C90.6865 98.0068 91.1083 97.8223 91.8466 97.7168C94.7734 97.2686 98.8075 94.2363 100.39 91.2305C101.339 89.4639 101.998 87.1172 102.024 85.4297V84.2432L103.659 83.4785C105.821 82.4502 108.273 79.9717 109.328 77.7305C110.726 74.8037 111.042 71.9561 110.304 68.8975L109.908 67.2363L110.699 66.1025C111.965 64.2041 112.598 62.3057 112.729 59.8271C112.967 56.1094 112.018 53.2354 109.618 50.335L108.326 48.8057L108.484 47.0127C108.774 43.6904 107.72 40.3682 105.452 37.5205L104.397 36.1494L105.004 34.752C105.32 33.9873 105.742 32.8271 105.9 32.168C106.322 30.3223 106.586 26.9736 106.269 26.7891C105.848 26.5518 99.3876 25.3652 97.3574 25.1543L95.4589 24.9961L95.3534 21.6475C95.1952 17.8242 94.7206 16.0049 93.0068 12.9463L91.9257 10.9951L89.2363 11.1533C86.3095 11.3379 84.2001 11.8916 81.9589 13.0781C81.1679 13.5 80.4296 13.8691 80.3505 13.9219C80.2714 13.9482 80.1132 13.4209 80.0341 12.709C79.8232 10.8896 78.9003 8.30566 77.8193 6.43359C76.9491 4.93066 76.7909 4.79883 75.789 4.66699C74.5234 4.50879 71.5439 4.79883 69.83 5.27344C69.1972 5.43164 67.8788 5.98535 66.9296 6.45996L65.163 7.35645L63.871 5.61621C62.4472 3.74414 60.2587 1.95117 57.912 0.764648C57.0683 0.342773 56.3564 0 56.33 0C56.2773 0 55.5126 0.421875 54.5898 0.896484ZM57.8593 5.74805C60.8124 7.91016 62.9745 12.0234 62.9745 15.4775V16.1367L61.9198 15.293C58.7294 12.7617 54.036 12.7617 50.8193 15.3193L49.7118 16.1895L49.87 14.6338C50.1337 12.4189 51.0302 9.99316 52.1376 8.54297C53.2714 7.01367 55.6972 5.00977 56.3564 5.00977C56.62 5.00977 57.3056 5.35254 57.8593 5.74805ZM41.248 9.33398C42.0126 9.51855 43.3046 10.0723 44.1484 10.5205L45.704 11.3379V19.1162L44.5966 19.96L43.5155 20.7773L42.9091 20.1445C42.0917 19.2744 39.455 17.9824 38.0312 17.7715L36.871 17.6133V15.583C36.871 13.5527 37.2402 11.7861 38.0048 9.94043C38.4794 8.80664 38.9804 8.72754 41.248 9.33398ZM74.7607 9.94043C75.5253 11.7861 75.8945 13.5527 75.8945 15.583V17.6133L74.7343 17.7715C73.3105 17.9824 70.6738 19.2744 69.8564 20.1445L69.2499 20.7773L68.1689 19.96L67.0614 19.1162V11.3379L68.6171 10.5205C70.3573 9.59766 72.1503 9.01758 73.4687 8.99121C74.2333 8.96484 74.3915 9.09668 74.7607 9.94043ZM28.1171 16.6113C29.04 17.0332 30.2792 17.7715 30.8329 18.2197L31.8876 19.0371L30.5429 20.4609C29.831 21.2256 29.2245 21.9639 29.2245 22.1221C29.2245 22.2803 28.9081 22.4912 28.5126 22.5703C27.1679 22.8867 25.2694 23.9941 24.2148 25.0488C22.4745 26.7891 21.9472 26.3672 21.6835 23.1504C21.4989 21.0146 21.8417 18.7734 22.7118 16.7695L23.2655 15.5039L24.8476 15.6621C25.7441 15.7412 27.1679 16.1631 28.1171 16.6113ZM90.08 16.7959C90.9238 18.7734 91.2665 21.0146 91.082 23.1504C90.8183 26.3672 90.2909 26.7891 88.5507 25.0488C87.496 23.9941 85.5976 22.8867 84.2792 22.5703C83.8574 22.4912 83.5409 22.2803 83.5409 22.1221C83.5409 21.9639 82.9345 21.2256 82.2226 20.4609L80.8779 19.0371L81.8798 18.2461C83.8837 16.6641 86.4941 15.6357 88.5771 15.583C89.4736 15.5566 89.579 15.6357 90.08 16.7959ZM57.8857 17.9561C59.0722 18.3779 60.2851 19.749 60.7597 21.1465L61.1816 22.4121H62.4999C65.163 22.4121 67.1933 24.4424 67.1933 27.1318C67.1933 28.5557 66.6132 29.6895 65.2948 30.876L64.2138 31.8252L64.5038 33.0381C64.9521 34.752 64.8993 35.543 64.2665 36.835C63.08 39.2607 59.7577 40.0518 57.5956 38.417C57.0947 38.0215 56.5409 37.7051 56.3827 37.7051C56.2245 37.7051 55.6708 38.0215 55.1698 38.417C53.0077 40.0518 49.6855 39.2607 48.4989 36.835C47.8661 35.543 47.8134 34.752 48.2616 33.0381L48.5517 31.8252L47.4706 30.876C46.1523 29.6895 45.5722 28.5557 45.5722 27.1318C45.5722 24.4424 47.6025 22.4121 50.2655 22.4121H51.5839L52.0058 21.1465C52.9023 18.4834 55.5126 17.0596 57.8857 17.9561ZM38.8749 22.5967C39.3232 22.8076 40.0351 23.3086 40.4569 23.7568C41.1425 24.4688 41.1952 24.6797 41.2216 26.8418C41.2743 29.2939 41.7753 30.9023 43.0409 32.5635C43.5419 33.1963 43.6737 33.7764 43.7792 35.332C43.8319 36.6768 44.0693 37.7051 44.4648 38.5225C45.203 40.0254 45.203 40.5791 44.4384 41.6865C43.0409 43.8223 40.2196 44.2705 38.0048 42.7148L36.871 41.9238L35.6318 42.7148C34.1025 43.6904 32.9687 43.9277 31.7294 43.5059C29.04 42.6094 27.8534 40.1045 28.7499 37.1514C29.04 36.123 29.04 36.0967 27.9325 35.1738C26.5351 33.9609 26.0605 33.0381 26.0605 31.5088C26.0605 28.6084 28.1698 26.6309 31.2548 26.6309C31.9931 26.6309 32.1249 26.499 32.3886 25.6289C33.3905 22.5176 36.0273 21.2783 38.8749 22.5967ZM78.0566 22.5703C78.953 23.0449 79.955 24.3633 80.3769 25.6289C80.6405 26.499 80.7724 26.6309 81.5107 26.6309C84.5956 26.6309 86.705 28.6084 86.705 31.5088C86.705 33.0117 86.2568 33.9082 84.8329 35.1738C83.7519 36.1494 83.7519 36.2021 84.0419 37.1777C84.912 40.1045 83.7255 42.6094 81.0361 43.5059C79.7968 43.9277 78.663 43.6904 77.1337 42.7148L75.8945 41.9238L74.7607 42.7148C72.5458 44.2705 69.7245 43.8223 68.3271 41.6865C67.5624 40.5791 67.5624 40.0254 68.3007 38.5225C68.6962 37.7051 68.9335 36.6768 68.9863 35.332C69.0917 33.7764 69.2236 33.1963 69.7245 32.5635C70.9638 30.9023 71.4648 29.3467 71.5175 26.8154L71.5702 24.4424L72.6777 23.4404C74.3652 21.9639 76.2109 21.6475 78.0566 22.5703ZM20.6816 30.0322C21.4462 30.3223 21.5253 30.4541 21.6571 32.0625C21.8417 33.9082 22.4745 35.6221 23.5292 36.9668C24.0038 37.5996 24.1357 38.0479 24.0302 38.6016L23.872 39.3398L21.3407 39.2344C19.1786 39.1553 18.5458 39.0234 17.0165 38.3115C14.0634 36.9141 11.3212 33.4863 11.2157 31.0605C11.163 30.2432 11.2157 30.2168 12.6132 29.874C14.3271 29.5049 19.495 29.584 20.6816 30.0322ZM100.02 29.9004C101.576 30.2168 101.602 30.2432 101.55 31.0869C101.497 32.3525 100.258 34.6465 98.8867 36.0703C98.1747 36.8086 96.8564 37.7314 95.8281 38.2324C94.2197 39.0234 93.6923 39.1553 91.4511 39.2344L88.8935 39.3398L88.7353 38.6016C88.6298 38.0479 88.7617 37.5996 89.2363 36.9668C90.2909 35.5957 90.9238 33.9082 91.1083 32.0625C91.2665 30.2168 91.2929 30.1904 93.4286 29.7158C94.5361 29.4521 98.5175 29.5576 100.02 29.9004ZM12.6132 40.7373C15.4081 42.7939 18.6777 43.7695 22.9228 43.7695C25.3222 43.7695 25.454 43.7959 25.7968 44.4287C26.0605 44.9561 26.0868 45.4307 25.8232 46.96C25.3485 49.8867 24.1357 51.7852 21.8417 53.2617C21.1034 53.7363 20.5234 54.1846 20.5234 54.29C20.5234 54.3955 20.7607 55.1865 21.0771 56.0303C21.8681 58.2715 21.6835 60.7236 20.5761 62.9121L19.7587 64.5205L20.9452 65.6807C22.8964 67.5527 23.5292 69.0557 23.5556 71.7188C23.5556 72.958 23.4501 74.4609 23.3446 75.041L23.1337 76.1484L24.5312 76.333C28.5653 76.8604 31.5185 79.6289 32.3886 83.7158L32.6786 85.0342L34.5771 85.0605C38.0312 85.0869 40.7206 86.8008 42.5927 90.123L43.5155 91.7578L44.5966 91.0723C48.2353 88.8311 51.7421 88.8311 55.038 91.0986L56.3827 92.0215L57.7275 91.0986C60.9179 88.9102 64.3193 88.8311 67.7734 90.835L69.2763 91.7314L70.1991 90.0967C71.2538 88.2246 72.6513 86.7744 74.1806 85.9834C75.5517 85.2715 77.872 84.8496 79.1113 85.0342L80.0605 85.1924L80.3505 83.8213C81.247 79.6289 84.2001 76.8076 88.1816 76.3066C89.6054 76.1484 89.6581 76.1221 89.4999 75.4365C89.3945 75.0674 89.2626 73.8018 89.1572 72.6152C88.9462 69.6621 89.4472 68.2383 91.4511 66.1025L92.9804 64.4678L92.163 62.8857C91.082 60.7236 90.8974 58.2451 91.6884 56.0303C92.0048 55.1865 92.2421 54.3955 92.2421 54.29C92.2421 54.1846 91.662 53.7363 90.9238 53.2617C88.5771 51.7588 87.1796 49.4385 86.8368 46.5117C86.5468 43.9805 86.7841 43.7695 89.8691 43.7695C94.0878 43.7695 97.3574 42.7939 100.205 40.7109C101.471 39.7617 101.497 39.7617 102.051 40.2363C103.923 41.9502 104.635 45.958 103.606 49.0166C103.29 49.9395 103.053 50.7041 103.105 50.7305C103.158 50.7832 103.606 51.0469 104.134 51.3633C105.478 52.1807 107.219 54.1318 107.878 55.582C108.3 56.5049 108.432 57.3486 108.432 58.9307C108.432 61.541 107.851 62.9648 105.953 64.9688L104.635 66.3662L105.294 67.8428C107.008 71.5605 106.454 75.4365 103.87 78.0205C102.525 79.3652 101.101 80.1035 98.913 80.5518C97.9638 80.7627 97.1728 80.9473 97.12 81C97.0937 81.0527 97.1992 81.9756 97.3837 83.0566C98.1484 87.3545 96.4345 90.9404 92.7167 92.8389C91.873 93.2871 90.9765 93.4717 89.289 93.5508L86.995 93.6562L86.705 95.001C86.0195 98.2441 83.9892 100.749 81.247 101.777C78.8212 102.674 76.29 102.463 73.706 101.145C72.5986 100.564 71.6493 100.143 71.5702 100.222C71.5175 100.274 71.1484 100.96 70.7792 101.725C69.1972 104.836 66.3759 106.629 62.9745 106.655C60.7597 106.655 59.3622 106.207 57.5165 104.889L56.3827 104.071L55.2489 104.889C53.4032 106.207 52.0058 106.655 49.7909 106.655C46.3896 106.629 43.5683 104.836 41.9862 101.725C41.6171 100.96 41.248 100.274 41.1952 100.222C41.1161 100.143 40.1669 100.564 39.0595 101.145C35.5527 102.938 32.0722 102.7 29.2245 100.433C27.6425 99.1934 26.7196 97.6641 26.1659 95.3965L25.7441 93.6562L23.4501 93.5508C21.789 93.4717 20.8925 93.2871 20.0487 92.8389C16.331 90.9141 14.5644 87.2227 15.3554 83.0303C15.5663 81.9756 15.6982 81.0527 15.6454 81C15.5927 80.9473 14.8017 80.7627 13.8525 80.5518C11.664 80.1035 10.2401 79.3652 8.89542 78.0205C6.31144 75.4365 5.73136 71.1914 7.49796 67.7109L8.15714 66.3926L6.81241 64.9688C4.91398 62.9648 4.3339 61.541 4.3339 58.9307C4.3339 57.3486 4.46573 56.5049 4.88761 55.582C5.54679 54.1318 7.28702 52.1807 8.63175 51.3633C9.15909 51.0469 9.60734 50.7832 9.66007 50.7305C9.71281 50.7041 9.4755 49.9395 9.15909 49.0166C8.15714 46.0107 8.73722 42.3984 10.5829 40.3945C10.873 40.0781 11.163 39.8145 11.2421 39.8145C11.2948 39.8145 11.9276 40.2363 12.6132 40.7373ZM58.2021 43.4004C59.6786 43.875 60.6542 43.875 62.4472 43.374C63.8447 43.0049 63.8974 43.0312 64.2665 43.585C65.2421 45.0615 67.4306 46.8809 68.8808 47.4346C70.6738 48.0938 73.205 48.1729 74.8398 47.5928C75.8417 47.25 76.079 47.25 77.2655 47.6191C78.2148 47.9355 79.1113 48.0146 80.6405 47.9092L82.6972 47.7773L82.8554 48.8584C83.1191 50.4932 84.4638 53.0771 85.8613 54.6328C87.0742 55.9775 87.1269 56.0566 86.9159 57.2168C86.8105 57.876 86.8105 59.0361 86.8896 59.7744L87.0214 61.1719H25.7441L25.8759 59.7744C25.955 59.0361 25.955 57.876 25.8495 57.2168C25.6386 56.0566 25.6913 55.9775 26.9042 54.6328C28.3017 53.0771 29.6464 50.4932 29.9101 48.8584L30.0683 47.7773L32.1249 47.9092C33.6806 48.0146 34.5507 47.9355 35.579 47.6191C36.8183 47.1973 37.0292 47.1973 37.9521 47.5664C39.455 48.1729 42.0917 48.0938 43.8847 47.4346C45.3349 46.8809 47.5234 45.0615 48.4989 43.585C48.8681 43.0312 48.9208 43.0049 50.3183 43.374C52.1903 43.875 53.3241 43.8486 54.9325 43.2686C55.6708 43.0049 56.4355 42.8467 56.6464 42.9258C56.8573 42.9785 57.5693 43.2158 58.2021 43.4004ZM86.0722 65.8389C85.9931 66.1025 85.6503 67.1045 85.3339 68.0801L84.7275 69.873H28.038L27.4316 68.0801C27.1152 67.1045 26.7724 66.1025 26.6933 65.8389C26.5351 65.417 28.0644 65.3906 56.3827 65.3906C84.7011 65.3906 86.2304 65.417 86.0722 65.8389ZM42.1444 74.3291C42.1444 74.8301 39.455 81.4746 39.2704 81.4746C39.1386 81.4746 38.7167 81.3691 38.2948 81.2373C37.873 81.1055 37.2138 80.9209 36.8446 80.8418C36.3173 80.7363 35.9745 80.3145 35.3944 79.1807C34.9726 78.2842 33.9443 76.9131 32.8896 75.8584L31.123 74.0918H36.6337C39.8241 74.0918 42.1444 74.1973 42.1444 74.3291ZM49.7382 79.5498L49.6591 85.0342L48.0771 85.2188C47.2069 85.2979 46.205 85.5088 45.8359 85.6406C45.2558 85.8779 45.0712 85.7725 44.2011 84.8496L43.2255 83.7949L47.0224 74.0918H49.7909L49.7382 79.5498ZM58.4921 85.8252L57.4374 86.2734C56.4618 86.6689 56.3036 86.6689 55.328 86.2734L54.2734 85.8252V74.0918H58.4921V85.8252ZM69.54 83.7949L68.5644 84.8496C67.6943 85.7725 67.5097 85.8779 66.9296 85.6406C66.5605 85.5088 65.5585 85.2979 64.6884 85.2188L63.1064 85.0342L63.0273 79.5498L62.9745 74.0918H65.7431L69.54 83.7949ZM79.8759 75.8584C78.8212 76.9131 77.7929 78.2842 77.371 79.1807C76.7909 80.3145 76.4482 80.7363 75.9208 80.8418C75.5517 80.9209 74.8925 81.1055 74.4706 81.2373C74.0488 81.3691 73.6269 81.4746 73.495 81.4746C73.3105 81.4746 70.621 74.8301 70.621 74.3291C70.621 74.1973 72.9413 74.0918 76.1318 74.0918H81.6425L79.8759 75.8584ZM28.5653 105.231C29.2245 105.574 29.7519 105.97 29.7255 106.128C29.7255 106.26 27.5634 111.85 24.9267 118.521L20.1278 130.649H17.0956C14.9599 130.649 14.0898 130.57 14.1161 130.333C14.1952 130.017 24.7157 103.096 24.9267 102.753C24.9794 102.647 25.5595 103.017 26.1923 103.57C26.8251 104.124 27.9062 104.889 28.5653 105.231ZM93.2704 116.49C96.1972 123.952 98.623 130.175 98.6493 130.333C98.6757 130.57 97.8056 130.649 95.6699 130.649H92.6376L87.8388 118.521C85.2021 111.85 83.04 106.26 83.04 106.128C83.04 105.97 83.7255 105.469 84.5956 104.968C85.4394 104.493 86.4677 103.729 86.8632 103.333C87.2587 102.911 87.6806 102.647 87.7861 102.753C87.8915 102.885 90.37 109.055 93.2704 116.49ZM57.4902 109.872L58.4921 110.32V130.781H54.2734V110.294L55.2753 109.872C55.8027 109.661 56.3036 109.477 56.3564 109.45C56.4091 109.424 56.9364 109.635 57.4902 109.872Z" fill="url(#paint0_linear_51_641)"/>
<path d="M54.9325 27.0264C54.1152 27.8174 54.0888 28.9512 54.8271 29.9004C56.0136 31.4033 58.4921 30.4014 58.4921 28.4238C58.4921 27.3955 57.4374 26.3672 56.3827 26.3672C55.8818 26.3672 55.328 26.6045 54.9325 27.0264Z" fill="url(#paint1_linear_51_641)"/>
<path d="M35.9218 30.9551C34.1288 31.7461 34.4189 34.5146 36.3173 34.9365C38.3739 35.3848 39.7714 33.0644 38.4003 31.5351C37.6093 30.6914 36.9237 30.5332 35.9218 30.9551Z" fill="url(#paint2_linear_51_641)"/>
<path d="M75.2089 30.8496C73.996 31.3242 73.3896 33.0908 74.1278 34.04C75.4726 35.8066 78.0038 34.9629 78.0038 32.7744C78.0038 31.957 77.2655 30.8496 76.7118 30.8496C76.58 30.8496 76.3163 30.7969 76.1054 30.7441C75.9208 30.665 75.4989 30.7178 75.2089 30.8496Z" fill="url(#paint3_linear_51_641)"/>
<path d="M9.84464 57.0059C9.05362 57.4277 8.65812 58.0342 8.65812 58.8252C8.65812 59.9062 8.89542 60.3545 9.76554 60.8027C12.0331 61.9893 14.0107 59.0098 12.0595 57.375C11.1894 56.6367 10.662 56.5576 9.84464 57.0059Z" fill="url(#paint4_linear_51_641)"/>
<path d="M96.7245 57.0322C94.7997 58.0078 95.2743 60.6182 97.4628 61.0664C98.1483 61.1982 98.412 61.0928 99.0976 60.4336C100.047 59.4844 100.126 58.5615 99.3085 57.6387C98.5702 56.8213 97.5946 56.584 96.7245 57.0322Z" fill="url(#paint5_linear_51_641)"/>
<path d="M15.7773 70.5322C14.1689 72.2461 16.0409 74.7773 18.2821 73.9336C18.9413 73.6699 19.5214 72.2988 19.3368 71.4287C18.9941 69.8467 16.911 69.3193 15.7773 70.5322Z" fill="url(#paint6_linear_51_641)"/>
<path d="M98.4384 72.6416C97.0409 74.0127 97.9638 76.2012 99.9413 76.2012C101.787 76.2012 102.657 73.9336 101.339 72.6416C100.943 72.2197 100.39 71.9824 99.8886 71.9824C99.3876 71.9824 98.8339 72.2197 98.4384 72.6416Z" fill="url(#paint7_linear_51_641)"/>
<path d="M85.6239 81.0264C84.4638 81.9229 84.3847 83.7422 85.4657 84.5068C86.1249 84.9551 87.3114 85.0342 88.0234 84.6387C88.6825 84.2959 89.1044 82.9248 88.8144 82.1602C88.3398 80.8945 86.5995 80.2881 85.6239 81.0264Z" fill="url(#paint8_linear_51_641)"/>
<path d="M20.8925 85.166C19.7851 85.6143 19.1786 87.0381 19.6269 88.1982C19.8378 88.6992 21.0771 89.3848 21.8417 89.3848C22.7118 89.3848 23.6874 88.2246 23.6874 87.1963C23.6874 86.3789 22.9228 85.166 22.3691 85.166C22.2636 85.166 21.9999 85.1133 21.789 85.0605C21.6044 84.9814 21.1825 85.0342 20.8925 85.166Z" fill="url(#paint9_linear_51_641)"/>
<path d="M33.3642 89.9121C32.4941 90.5977 32.2831 91.5732 32.7577 92.5225C33.6542 94.2363 36.3173 93.8936 36.7392 92.0479C37.1874 90.0439 34.9726 88.6465 33.3642 89.9121Z" fill="url(#paint10_linear_51_641)"/>
<path d="M62.0253 93.9727C61.1025 94.3682 60.8652 94.8164 60.8652 96.1084C60.8652 97.1367 61.8407 98.0859 62.8954 98.0859C63.7392 98.0859 65.0839 96.7412 65.0839 95.8711C65.0839 95.1328 64.161 93.9727 63.37 93.7617C63.08 93.6826 62.4735 93.7881 62.0253 93.9727Z" fill="url(#paint11_linear_51_641)"/>
<path d="M79.4013 93.999C78.0038 94.6055 77.7665 96.4248 78.953 97.4795C79.8495 98.2969 80.7988 98.2441 81.7216 97.3213C82.6445 96.3984 82.6972 95.4492 81.9062 94.5527C81.1152 93.709 80.4296 93.5508 79.4013 93.999Z" fill="url(#paint12_linear_51_641)"/>
<path d="M48.3407 98.7451C46.996 100.063 47.9452 102.305 49.87 102.305C51.0566 102.305 51.9003 101.408 51.9003 100.143C51.9003 98.2969 49.6327 97.4268 48.3407 98.7451Z" fill="url(#paint13_linear_51_641)"/>
<defs>
<linearGradient id="paint0_linear_51_641" x1="56.3824" y1="0" x2="56.3824" y2="135" gradientUnits="userSpaceOnUse">
<stop stop-color="#682B07"/>
<stop offset="1" stop-color="#9C4B1C"/>
</linearGradient>
<linearGradient id="paint1_linear_51_641" x1="56.3824" y1="0" x2="56.3824" y2="135" gradientUnits="userSpaceOnUse">
<stop stop-color="#682B07"/>
<stop offset="1" stop-color="#9C4B1C"/>
</linearGradient>
<linearGradient id="paint2_linear_51_641" x1="56.3824" y1="0" x2="56.3824" y2="135" gradientUnits="userSpaceOnUse">
<stop stop-color="#682B07"/>
<stop offset="1" stop-color="#9C4B1C"/>
</linearGradient>
<linearGradient id="paint3_linear_51_641" x1="56.3824" y1="0" x2="56.3824" y2="135" gradientUnits="userSpaceOnUse">
<stop stop-color="#682B07"/>
<stop offset="1" stop-color="#9C4B1C"/>
</linearGradient>
<linearGradient id="paint4_linear_51_641" x1="56.3824" y1="0" x2="56.3824" y2="135" gradientUnits="userSpaceOnUse">
<stop stop-color="#682B07"/>
<stop offset="1" stop-color="#9C4B1C"/>
</linearGradient>
<linearGradient id="paint5_linear_51_641" x1="56.3824" y1="0" x2="56.3824" y2="135" gradientUnits="userSpaceOnUse">
<stop stop-color="#682B07"/>
<stop offset="1" stop-color="#9C4B1C"/>
</linearGradient>
<linearGradient id="paint6_linear_51_641" x1="56.3824" y1="0" x2="56.3824" y2="135" gradientUnits="userSpaceOnUse">
<stop stop-color="#682B07"/>
<stop offset="1" stop-color="#9C4B1C"/>
</linearGradient>
<linearGradient id="paint7_linear_51_641" x1="56.3824" y1="0" x2="56.3824" y2="135" gradientUnits="userSpaceOnUse">
<stop stop-color="#682B07"/>
<stop offset="1" stop-color="#9C4B1C"/>
</linearGradient>
<linearGradient id="paint8_linear_51_641" x1="56.3824" y1="0" x2="56.3824" y2="135" gradientUnits="userSpaceOnUse">
<stop stop-color="#682B07"/>
<stop offset="1" stop-color="#9C4B1C"/>
</linearGradient>
<linearGradient id="paint9_linear_51_641" x1="56.3824" y1="0" x2="56.3824" y2="135" gradientUnits="userSpaceOnUse">
<stop stop-color="#682B07"/>
<stop offset="1" stop-color="#9C4B1C"/>
</linearGradient>
<linearGradient id="paint10_linear_51_641" x1="56.3824" y1="0" x2="56.3824" y2="135" gradientUnits="userSpaceOnUse">
<stop stop-color="#682B07"/>
<stop offset="1" stop-color="#9C4B1C"/>
</linearGradient>
<linearGradient id="paint11_linear_51_641" x1="56.3824" y1="0" x2="56.3824" y2="135" gradientUnits="userSpaceOnUse">
<stop stop-color="#682B07"/>
<stop offset="1" stop-color="#9C4B1C"/>
</linearGradient>
<linearGradient id="paint12_linear_51_641" x1="56.3824" y1="0" x2="56.3824" y2="135" gradientUnits="userSpaceOnUse">
<stop stop-color="#682B07"/>
<stop offset="1" stop-color="#9C4B1C"/>
</linearGradient>
<linearGradient id="paint13_linear_51_641" x1="56.3824" y1="0" x2="56.3824" y2="135" gradientUnits="userSpaceOnUse">
<stop stop-color="#682B07"/>
<stop offset="1" stop-color="#9C4B1C"/>
</linearGradient>
</defs>
</svg>
