<svg width="16" height="22" viewBox="0 0 16 22" fill="none" xmlns="http://www.w3.org/2000/svg">
<path d="M13.5547 11.92C12.856 13.336 11.9093 14.7467 10.9413 16.0133C10.0231 17.2075 9.0412 18.3514 8 19.44C6.95878 18.3514 5.97691 17.2075 5.05867 16.0133C4.09067 14.7467 3.144 13.336 2.44533 11.92C1.73867 10.4893 1.33333 9.14933 1.33333 8C1.33333 6.23189 2.03571 4.5362 3.28595 3.28595C4.5362 2.03571 6.23189 1.33333 8 1.33333C9.76811 1.33333 11.4638 2.03571 12.714 3.28595C13.9643 4.5362 14.6667 6.23189 14.6667 8C14.6667 9.14933 14.26 10.4893 13.5547 11.92ZM8 21.3333C8 21.3333 16 13.752 16 8C16 5.87827 15.1571 3.84344 13.6569 2.34315C12.1566 0.842855 10.1217 0 8 0C5.87827 0 3.84344 0.842855 2.34315 2.34315C0.842855 3.84344 3.16163e-08 5.87827 0 8C0 13.752 8 21.3333 8 21.3333Z" fill="#BE4400"/>
<path d="M8 10.6667C7.29276 10.6667 6.61448 10.3857 6.11438 9.88562C5.61428 9.38552 5.33333 8.70724 5.33333 8C5.33333 7.29276 5.61428 6.61448 6.11438 6.11438C6.61448 5.61428 7.29276 5.33333 8 5.33333C8.70724 5.33333 9.38552 5.61428 9.88562 6.11438C10.3857 6.61448 10.6667 7.29276 10.6667 8C10.6667 8.70724 10.3857 9.38552 9.88562 9.88562C9.38552 10.3857 8.70724 10.6667 8 10.6667ZM8 12C9.06087 12 10.0783 11.5786 10.8284 10.8284C11.5786 10.0783 12 9.06087 12 8C12 6.93913 11.5786 5.92172 10.8284 5.17157C10.0783 4.42143 9.06087 4 8 4C6.93913 4 5.92172 4.42143 5.17157 5.17157C4.42143 5.92172 4 6.93913 4 8C4 9.06087 4.42143 10.0783 5.17157 10.8284C5.92172 11.5786 6.93913 12 8 12Z" fill="#BE4400"/>
</svg>
