<svg width="14" height="14" viewBox="0 0 14 14" fill="none" xmlns="http://www.w3.org/2000/svg">
<path d="M3.19756 1.16222C3.14591 1.09578 3.08071 1.04108 3.00629 1.00177C2.93188 0.962463 2.84995 0.939437 2.76595 0.934223C2.68196 0.929009 2.59781 0.941728 2.5191 0.971534C2.4404 1.00134 2.36894 1.04755 2.30946 1.1071L1.40474 2.01269C0.982131 2.43618 0.826386 3.03554 1.01101 3.5614C1.77725 5.73797 3.0237 7.7141 4.65789 9.34321C6.28703 10.9774 8.26315 12.2238 10.4397 12.9901C10.9656 13.1747 11.5649 13.019 11.9884 12.5964L12.8931 11.6916C12.9527 11.6322 12.9989 11.5607 13.0287 11.482C13.0585 11.4033 13.0712 11.3191 13.066 11.2352C13.0608 11.1512 13.0378 11.0692 12.9985 10.9948C12.9591 10.9204 12.9045 10.8552 12.838 10.8035L10.8194 9.23384C10.7485 9.17879 10.6659 9.14057 10.578 9.12208C10.4901 9.10359 10.3991 9.1053 10.312 9.1271L8.39577 9.60571C8.14 9.66963 7.87203 9.66624 7.61796 9.59586C7.36389 9.52548 7.13237 9.39051 6.94594 9.20409L4.79701 7.05429C4.61044 6.86795 4.47531 6.63647 4.40477 6.38239C4.33424 6.12832 4.33071 5.8603 4.39452 5.60446L4.87401 3.68827C4.8958 3.60112 4.89752 3.51015 4.87903 3.42224C4.86054 3.33433 4.82232 3.25177 4.76726 3.18078L3.19756 1.16222ZM1.64886 0.447369C1.80198 0.294205 1.98592 0.175367 2.18849 0.0987461C2.39106 0.0221255 2.60761 -0.0105244 2.82376 0.00296444C3.03991 0.0164533 3.25072 0.0757722 3.44219 0.176982C3.63366 0.278192 3.8014 0.418978 3.93429 0.58999L5.50399 2.60768C5.79186 2.97779 5.89335 3.4599 5.77961 3.91489L5.301 5.83108C5.27625 5.93032 5.27759 6.03428 5.30488 6.13286C5.33217 6.23144 5.38448 6.32129 5.45674 6.39368L7.60655 8.54349C7.67903 8.6159 7.76903 8.6683 7.86777 8.69559C7.96652 8.72289 8.07065 8.72414 8.17003 8.69924L10.0853 8.22063C10.3099 8.16449 10.5442 8.16013 10.7707 8.20787C10.9972 8.25562 11.2098 8.35423 11.3926 8.49624L13.4102 10.0659C14.1356 10.6303 14.2021 11.7021 13.5529 12.3505L12.6481 13.2552C12.0007 13.9027 11.0329 14.1871 10.1308 13.8694C7.82195 13.0571 5.7256 11.7352 3.99729 10.0021C2.26422 8.27401 0.942415 6.17797 0.129908 3.86939C-0.186832 2.96817 0.097534 1.99957 0.745014 1.35209L1.64974 0.447369H1.64886Z" fill="#E0AFF9"/>
</svg>
