<svg width="135" height="135" viewBox="0 0 135 135" fill="none" xmlns="http://www.w3.org/2000/svg">
<path d="M65.2661 8.70215H69.4853V0H65.2661V8.70215Z" fill="url(#paint0_linear_51_636)"/>
<path d="M48.9166 8.57029L55.1136 14.7673L58.1462 11.7347L51.9492 5.53773L48.9166 8.57029Z" fill="url(#paint1_linear_51_636)"/>
<path d="M76.6052 11.7347L79.6378 14.7673L85.8348 8.57029L82.8022 5.53773L76.6052 11.7347Z" fill="url(#paint2_linear_51_636)"/>
<path d="M30.062 9.04495C29.4818 9.25591 28.7171 9.54598 28.3743 9.73057C27.3986 10.258 25.4472 12.1566 25.0253 12.9741C24.8143 13.3696 24.4451 13.7125 24.1814 13.7125C23.4958 13.7388 21.5444 14.6882 20.5951 15.4529C19.2502 16.5868 18.1427 18.3536 17.668 20.1731C17.2197 21.8345 17.167 21.8872 16.3495 21.8872C14.3454 21.8872 11.6029 23.4694 10.1789 25.4208C9.54599 26.3174 9.04496 26.6866 7.77919 27.1349C2.21509 29.1654 0.237331 36.7336 4.11374 41.2693C4.43018 41.6384 4.5884 42.4295 4.66751 43.9326C4.77299 45.6203 4.93122 46.3323 5.48499 47.3344C5.88054 48.02 6.19698 48.6265 6.19698 48.6529C6.19698 48.7056 5.77506 48.8902 5.27403 49.0485C3.87641 49.5231 1.58221 51.7646 0.738364 53.4786C0.131851 54.7444 0.0263701 55.3245 0 57.2232C0 59.6492 0.421922 61.126 1.60858 62.7082C2.13598 63.3674 2.2942 63.9212 2.34694 65.3452C2.50516 68.7469 4.37744 71.5686 7.46275 73.098C8.91311 73.81 9.46688 73.9419 11.1018 73.9682C13.0268 73.9682 13.0532 73.9682 13.2114 74.7593C13.4224 75.735 14.2926 77.5018 14.8991 78.1875C15.2156 78.5566 15.4002 79.295 15.4793 80.6926C15.6375 83.145 16.2967 84.7272 17.9053 86.4413C19.6194 88.2608 21.8081 89.2102 24.2605 89.2102C25.3153 89.2102 26.5284 89.0256 27.1085 88.7882C28.0051 88.3927 28.1897 88.3927 29.2181 88.7882C29.8246 88.9992 31.1695 89.1838 32.2243 89.2102C33.8329 89.2102 34.3603 89.1047 35.8106 88.3927C37.3929 87.6016 38.7377 86.4149 39.6871 84.9382C40.0826 84.3317 40.109 84.3581 42.3768 87.3115C43.6426 88.9728 45.6467 91.4253 46.8597 92.7701C48.0728 94.1414 49.2858 95.539 49.5759 95.9082L50.1033 96.5674L49.5759 96.9366C49.2858 97.1476 43.247 100.892 36.1798 105.27C25.289 111.968 23.1794 113.365 22.5992 114.262L21.8872 115.317L21.8081 122.727C21.7554 126.814 21.8081 130.532 21.8872 131.007C21.9663 131.481 22.4937 132.378 23.0211 132.958C24.6824 134.804 26.8184 135.437 28.9017 134.699C29.4027 134.54 35.2569 131.06 41.9285 126.972C48.6002 122.885 55.6674 118.56 57.6188 117.373C59.5701 116.16 62.5763 114.288 64.264 113.207L67.3757 111.229L70.461 113.207C78.7149 118.428 105.059 134.435 105.85 134.699C107.959 135.437 110.148 134.778 111.757 132.905C112.284 132.273 112.785 131.402 112.864 130.954C112.97 130.506 112.996 126.788 112.943 122.7L112.864 115.29L112.073 114.183C111.414 113.26 109.542 111.994 101.261 106.905C85.8875 97.4376 84.78 96.752 84.78 96.4883C84.78 96.3565 85.4656 95.4863 86.3095 94.5897C88.2872 92.4537 91.3989 88.6828 93.1921 86.2567L94.6424 84.3053L95.038 84.9382C96.0137 86.4149 97.3322 87.6016 98.9408 88.3927C100.391 89.1047 100.919 89.2102 102.527 89.2102C103.582 89.1838 104.927 88.9992 105.533 88.7882C106.562 88.3927 106.746 88.3927 107.643 88.7882C108.249 89.0256 109.41 89.2102 110.491 89.2102C112.943 89.2102 115.132 88.2608 116.846 86.4413C118.455 84.7272 119.114 83.145 119.272 80.6926C119.351 79.295 119.536 78.5566 119.852 78.1875C120.459 77.5018 121.329 75.735 121.54 74.7593C121.698 73.9682 121.725 73.9682 123.623 73.9682C128.37 73.9155 132.193 70.1709 132.404 65.3716C132.457 64.2904 132.642 63.3147 132.853 63.051C134.962 60.5195 135.437 56.5376 133.96 53.4259C133.169 51.7646 130.875 49.4967 129.477 49.0485C128.976 48.8902 128.554 48.7056 128.554 48.6529C128.554 48.6265 128.871 48.02 129.266 47.3344C129.82 46.3323 129.978 45.6203 130.084 43.9326C130.163 42.3504 130.321 41.6648 130.69 41.2693C130.954 40.9792 131.482 40.0299 131.877 39.1596C134.092 34.3603 131.376 28.4006 126.313 26.8975C125.548 26.6602 125.074 26.3174 124.599 25.5263C123.412 23.6276 120.459 21.8872 118.402 21.8872C117.584 21.8872 117.532 21.8345 117.083 20.1731C116.609 18.3536 115.501 16.5868 114.156 15.4529C113.207 14.6882 111.256 13.7388 110.57 13.7125C110.306 13.7125 109.937 13.3696 109.726 12.9741C109.172 11.8929 107.089 10.047 105.665 9.41413C103.74 8.51754 100.417 8.59665 98.4925 9.59872C96.8839 10.3898 95.5654 11.5501 94.7743 12.8422C94.4578 13.3169 94.0359 13.7125 93.7986 13.7125C92.0054 13.7388 88.8937 16.3495 87.8126 18.7492C86.9951 20.5687 86.6786 23.5485 87.1006 25.1044L87.3643 26.1064H76.1306L75.946 24.6297C75.3922 20.1204 72.5443 15.1364 69.6963 13.6861C68.4041 13.0268 66.3473 13.0268 65.0551 13.6861C63.4729 14.5036 61.627 16.6923 60.4931 19.1447C59.5174 21.2016 58.6999 24.1023 58.6736 25.4999V26.1064H47.7299V23.2585C47.7299 20.7533 47.6508 20.2786 47.018 18.9337C46.6488 18.1163 45.8313 16.9032 45.2248 16.244C44.1436 15.0837 41.8494 13.7125 40.9792 13.7125C40.7155 13.7125 40.2672 13.3169 39.9771 12.8159C39.1597 11.5237 37.472 10.0734 36.048 9.4405C34.4921 8.78125 31.4859 8.57028 30.062 9.04495ZM34.5976 13.6334C35.5997 14.108 36.549 15.4002 37.05 16.9296L37.3665 17.9317H38.8432C41.6912 17.9317 43.4052 19.8831 43.4316 23.1002C43.4316 25.3681 42.957 26.1064 41.5066 26.1064C40.5045 26.1064 40.1617 26.3438 36.3908 29.64L32.3562 33.2L31.5387 31.5123C30.5103 29.4291 28.8226 27.8996 26.7393 27.1349C25.4736 26.6602 24.9989 26.3174 24.2869 25.3153C23.7859 24.6033 22.9948 23.8386 22.5465 23.5485C21.7554 23.1002 21.7026 22.9948 21.8345 21.8081C22.0454 19.5139 23.7859 17.9317 26.1328 17.9317H27.5304L28.4006 16.1385C29.4818 13.9498 30.4839 13.1851 32.3562 13.1851C33.0945 13.1851 34.0966 13.3696 34.5976 13.6334ZM104.584 13.7652C105.164 14.1608 105.771 14.9782 106.351 16.1385L107.221 17.9317H108.619C110.966 17.9317 112.706 19.5139 112.917 21.8081C113.049 22.9948 112.996 23.1002 112.205 23.5485C111.757 23.8386 110.966 24.6033 110.465 25.3153C109.753 26.3174 109.278 26.6602 108.012 27.1349C105.929 27.8996 104.241 29.4291 103.213 31.5123L102.395 33.2L98.3606 29.64C94.5897 26.3438 94.2469 26.1064 93.2448 26.1064C92.3218 26.1064 92.1109 26.0009 91.7681 25.3153C91.5571 24.8934 91.3725 23.8913 91.3725 23.1002C91.3725 19.8831 93.0866 17.9317 95.8818 17.9317H97.3849L97.7014 16.9296C98.176 15.4265 99.1517 14.108 100.101 13.6334C101.42 12.9741 103.503 13.0532 104.584 13.7652ZM68.6678 18.3272C71.1994 21.228 72.386 26.4229 70.9884 28.4797C69.248 31.0904 65.5034 31.0904 63.763 28.4797C62.6554 26.8712 63.051 23.6013 64.7123 20.3577C65.4771 18.881 66.7956 17.4043 67.3757 17.4043C67.6394 17.4043 68.2195 17.8262 68.6678 18.3272ZM18.7755 26.3965C19.9358 26.8184 21.1752 28.1897 21.6235 29.5609L22.0454 30.8003L23.5749 30.9058C26.3174 31.0904 28.0842 32.9099 28.0842 35.5469V36.8918L24.8143 39.7398C22.9948 41.2956 21.518 42.7724 21.518 42.9833C21.518 43.1943 21.8345 44.5128 22.2564 45.884C22.8102 47.6508 22.9157 48.2046 22.5992 47.7299C21.5444 46.1741 20.5423 45.3039 18.9074 44.5128C17.4043 43.7744 16.8769 43.6426 15.1628 43.6426C13.106 43.6426 11.5501 44.0909 10.1261 45.1193L9.38777 45.6467L9.07133 44.5655C8.80763 43.6953 8.80763 43.1415 9.07133 41.8758L9.38777 40.2936L8.20111 39.2124C6.88261 37.973 6.46068 37.1028 6.46068 35.5733C6.46068 32.8572 8.51755 30.8531 11.3128 30.8531C12.4203 30.8531 12.4467 30.8531 13.0268 29.3763C14.108 26.7921 16.5077 25.5263 18.7755 26.3965ZM119.219 26.6075C120.485 27.1876 121.224 28.0578 121.856 29.6928C122.278 30.8267 122.331 30.8531 123.465 30.8531C126.234 30.8531 128.291 32.8836 128.291 35.5997C128.291 37.1028 127.869 37.973 126.55 39.2124L125.364 40.2936L125.68 41.8758C125.944 43.1415 125.944 43.6953 125.68 44.5392L125.364 45.6203L124.388 44.9874C120.353 42.3504 115 43.5371 112.152 47.7299C111.836 48.2046 111.941 47.6508 112.495 45.884C112.917 44.5128 113.233 43.1943 113.233 42.9833C113.233 42.7724 111.757 41.2956 109.937 39.7398L106.667 36.8918V35.5469C106.667 32.9099 108.434 31.0904 111.176 30.9058L112.706 30.8003L113.128 29.5609C113.55 28.2424 114.789 26.8448 115.897 26.3965C116.899 26.0009 118.033 26.0801 119.219 26.6075ZM61.2315 32.1188C62.1808 33.0945 63.2356 33.8329 64.0267 34.1493L65.2925 34.624L65.1342 39.1596L62.1808 39.2915C59.7284 39.397 59.1218 39.5288 58.489 39.9771C57.4869 40.7155 56.5639 42.1395 56.5639 42.8778V43.5107H43.3789V30.5894H59.6756L61.2315 32.1188ZM91.3725 43.5107H78.1875V42.8778C78.1875 42.1395 77.2645 40.7155 76.2624 39.9771C75.6296 39.5288 75.023 39.397 72.5706 39.2915L69.6172 39.1596L69.5381 36.9182L69.4853 34.6767L71.0412 33.9647C72.0432 33.4901 73.0189 32.7781 73.7573 31.9079L74.8912 30.6157L83.145 30.5894H91.3725V43.5107ZM40.4782 49.7077C46.1477 63.7366 56.2739 78.3984 67.1384 88.34C75.3659 95.9082 77.7392 97.5695 95.9873 108.777C102.079 112.495 107.458 115.844 107.933 116.213L108.777 116.846V123.386C108.777 130.268 108.724 130.532 107.564 130.532C107.221 130.532 104.505 129.003 101.472 127.157C98.4661 125.285 91.3725 120.933 85.7029 117.479C66.5055 105.744 62.7346 102.975 54.1906 94.2469C44.7238 84.569 37.6038 73.9419 32.3034 61.4688C30.7739 57.8825 26.9767 46.807 26.6075 44.9611C26.4756 44.17 26.6338 43.9854 32.7517 38.6322L39.0278 33.1473L39.2915 46.807L40.4782 49.7077ZM102.263 38.8696C108.065 43.9326 108.276 44.17 108.144 44.9347C107.88 46.306 104.399 56.7749 103.213 59.6492C100.365 66.7164 95.6972 75.2604 91.3198 81.4046C87.8917 86.2567 81.4574 93.8777 80.8245 93.8777C80.508 93.8777 75.946 90.2913 72.9925 87.7334L70.5401 85.6238L72.7288 83.2242C82.4331 72.5706 89.4475 61.6006 94.5106 49.1276L95.5918 46.4378V39.8189C95.5918 34.5976 95.6709 33.2264 95.9346 33.3846C96.0928 33.5164 98.9671 35.9689 102.263 38.8696ZM73.9682 75.234L72.1487 77.37C71.1466 78.5303 69.6435 80.1652 68.8524 80.9563L67.3757 82.3803L66.5582 81.6156C66.1099 81.1673 64.6068 79.5851 63.262 78.0556L60.7832 75.2867V43.5107H73.9682V75.234ZM17.2461 48.5474C18.4591 49.2858 19.0129 49.9978 19.5139 51.4481L19.9358 52.6875L21.5708 52.793C23.9968 52.9512 24.6561 53.505 25.6581 56.353C26.1328 57.6451 26.502 58.7527 26.502 58.8318C26.502 58.9373 26.1855 59.0691 25.79 59.1482C24.4979 59.4119 22.2037 61.0205 21.2016 62.339C20.4632 63.3147 19.9095 63.7366 18.881 64.0794C16.7978 64.8178 14.9782 66.3736 14.0025 68.2459C12.8686 70.461 8.75489 69.9072 7.3309 67.3757C6.67164 66.2154 6.53979 64.4222 7.01446 63.051C7.30453 62.2335 7.25179 62.1544 5.98602 60.9414C4.50929 59.5438 4.19285 58.5944 4.43018 56.5112C4.66751 54.2434 6.43431 52.7403 8.834 52.7403H10.3371L10.6535 51.6064C11.1018 50.156 11.9984 48.9693 13.106 48.4419C14.3454 47.8354 16.1649 47.8882 17.2461 48.5474ZM56.5639 58.6999C56.5639 65.7935 56.4848 69.3271 56.3002 69.2216C55.9047 68.9843 52.3711 63.5257 50.5779 60.3876C48.6529 57.065 47.2025 54.1906 45.6467 50.6307L44.4601 47.9936H56.5639V58.6999ZM89.2629 50.3142C87.8917 53.4786 86.0985 57.065 84.1735 60.3876C82.3803 63.5257 78.8467 68.9843 78.4512 69.2216C78.2666 69.3271 78.1875 65.7935 78.1875 58.6999V47.9936H90.2914L89.2629 50.3142ZM121.593 48.4156C122.727 48.9693 123.439 49.8396 123.992 51.4745L124.467 52.7403H125.944C128.317 52.7403 130.084 54.2434 130.321 56.5112C130.559 58.5944 130.242 59.5438 128.765 60.9414C127.5 62.1544 127.447 62.2335 127.737 63.051C128.212 64.4222 128.08 66.2154 127.421 67.3757C125.997 69.9072 121.883 70.461 120.749 68.2459C119.773 66.3736 117.954 64.8178 115.87 64.0794C114.842 63.7366 114.288 63.3147 113.55 62.339C112.548 61.0205 110.254 59.4119 108.988 59.1482C108.566 59.0691 108.249 58.9373 108.249 58.8318C108.249 58.7527 108.619 57.6451 109.093 56.353C110.095 53.505 110.755 52.9512 113.181 52.793L114.816 52.6875L115.238 51.4481C115.739 49.9978 116.292 49.2858 117.505 48.5474C118.587 47.8882 120.353 47.8354 121.593 48.4156ZM28.928 64.6596C30.0092 67.2175 33.0418 73.1508 34.7822 76.0778C36.2853 78.6094 36.5226 79.1368 36.5226 80.2971C36.5226 84.1471 32.5671 86.1249 29.35 83.9098C28.1633 83.0923 28.1369 83.0923 27.5304 83.567C25.6845 84.991 23.9968 85.2547 22.3091 84.3844C20.1732 83.3033 19.3293 81.2464 19.9886 78.8467L20.4105 77.3963L19.2502 76.3943C17.2197 74.6539 16.7714 72.1223 18.0899 69.96C18.8283 68.7733 20.0413 68.1141 21.94 67.9031L23.5485 67.7185L23.865 66.5846C24.1814 65.4243 25.4208 63.9212 26.3701 63.5257C26.6602 63.4202 27.214 63.3147 27.6095 63.3147C28.2424 63.2883 28.4006 63.4729 28.928 64.6596ZM108.302 63.5257C109.304 63.8948 110.544 65.3716 110.886 66.5846L111.203 67.7185L112.811 67.9031C114.71 68.1141 115.923 68.7733 116.661 69.96C117.98 72.1223 117.532 74.6539 115.501 76.3943L114.341 77.3963L114.763 78.8467C115.422 81.2464 114.578 83.3033 112.442 84.3844C110.755 85.2547 109.067 84.991 107.221 83.567C106.614 83.0923 106.588 83.0923 105.401 83.9098C102.184 86.1249 98.2551 84.1471 98.2288 80.2971C98.2288 79.1631 98.4397 78.6357 99.5736 76.7371C101.077 74.2583 104.584 67.5075 105.718 64.9233C106.483 63.1828 106.878 62.9719 108.302 63.5257ZM57.9352 103.766C59.4119 105.059 61.2578 106.614 62.0226 107.195C62.7873 107.775 63.3938 108.329 63.4202 108.408C63.4202 108.671 62.4972 109.251 44.5392 120.248C35.3096 125.917 27.5041 130.532 27.1876 130.532C26.0273 130.532 25.9746 130.268 25.9746 123.412C25.9746 117.532 26.0273 116.872 26.4492 116.503C26.6866 116.266 32.5407 112.627 39.4234 108.381C46.306 104.136 52.2392 100.47 52.6084 100.207C53.3732 99.6527 52.6612 99.1781 57.9352 103.766Z" fill="url(#paint3_linear_51_636)"/>
<path d="M31.0377 22.4937C30.2465 23.3376 30.2729 24.6297 31.1168 25.4472C33.0154 27.3722 35.8106 24.7088 34.123 22.5728C33.411 21.6499 31.8551 21.6235 31.0377 22.4937Z" fill="url(#paint4_linear_51_636)"/>
<path d="M100.628 22.5728C99.8901 23.5222 99.9165 24.6561 100.734 25.4472C102.052 26.7921 104.294 25.8427 104.294 23.9177C104.294 22.0191 101.789 21.0961 100.628 22.5728Z" fill="url(#paint5_linear_51_636)"/>
<path d="M16.3495 35.0987C14.5827 36.1007 14.8464 38.4213 16.8242 39.1069C17.4043 39.3179 18.5646 38.896 19.0129 38.2894C19.5139 37.6566 19.4612 36.2853 18.9338 35.6261C18.3536 34.9668 17.0615 34.7031 16.3495 35.0987Z" fill="url(#paint6_linear_51_636)"/>
<path d="M116.503 35.0723C115.475 35.4942 115.027 37.1028 115.633 38.2367C115.949 38.8168 117.321 39.3442 117.954 39.1069C119.852 38.4477 120.195 36.0744 118.507 35.2041C117.664 34.7558 117.347 34.7295 116.503 35.0723Z" fill="url(#paint7_linear_51_636)"/>
<path d="M13.6334 57.3023C12.8423 58.1462 12.8686 59.5965 13.6597 60.3349C14.9782 61.5743 17.2724 60.5986 17.2724 58.8054C17.2724 56.9859 14.8728 55.9838 13.6334 57.3023Z" fill="url(#paint8_linear_51_636)"/>
<path d="M118.138 57.3551C116.213 59.2537 118.877 62.0489 121.013 60.3613C121.54 59.9393 121.698 59.5965 121.698 58.8318C121.698 56.8804 119.509 55.9574 118.138 57.3551Z" fill="url(#paint9_linear_51_636)"/>
<path d="M26.6338 72.6497C24.8407 74.4165 27.2931 77.2381 29.35 75.7878C30.1938 75.2076 30.4839 74.2847 30.1674 73.309C29.64 71.8586 27.7678 71.4894 26.6338 72.6497Z" fill="url(#paint10_linear_51_636)"/>
<path d="M105.27 72.3069C104.136 73.1771 104.215 74.9439 105.401 75.7878C106.852 76.8162 108.777 75.6823 108.777 73.81C108.777 72.9662 107.617 71.9905 106.588 71.9905C106.113 71.9905 105.507 72.1487 105.27 72.3069Z" fill="url(#paint11_linear_51_636)"/>
<defs>
<linearGradient id="paint0_linear_51_636" x1="67.4082" y1="0" x2="67.4082" y2="135" gradientUnits="userSpaceOnUse">
<stop stop-color="#682B07"/>
<stop offset="1" stop-color="#9C4B1C"/>
</linearGradient>
<linearGradient id="paint1_linear_51_636" x1="67.4082" y1="0" x2="67.4082" y2="135" gradientUnits="userSpaceOnUse">
<stop stop-color="#682B07"/>
<stop offset="1" stop-color="#9C4B1C"/>
</linearGradient>
<linearGradient id="paint2_linear_51_636" x1="67.4082" y1="0" x2="67.4082" y2="135" gradientUnits="userSpaceOnUse">
<stop stop-color="#682B07"/>
<stop offset="1" stop-color="#9C4B1C"/>
</linearGradient>
<linearGradient id="paint3_linear_51_636" x1="67.4082" y1="0" x2="67.4082" y2="135" gradientUnits="userSpaceOnUse">
<stop stop-color="#682B07"/>
<stop offset="1" stop-color="#9C4B1C"/>
</linearGradient>
<linearGradient id="paint4_linear_51_636" x1="67.4082" y1="0" x2="67.4082" y2="135" gradientUnits="userSpaceOnUse">
<stop stop-color="#682B07"/>
<stop offset="1" stop-color="#9C4B1C"/>
</linearGradient>
<linearGradient id="paint5_linear_51_636" x1="67.4082" y1="0" x2="67.4082" y2="135" gradientUnits="userSpaceOnUse">
<stop stop-color="#682B07"/>
<stop offset="1" stop-color="#9C4B1C"/>
</linearGradient>
<linearGradient id="paint6_linear_51_636" x1="67.4082" y1="0" x2="67.4082" y2="135" gradientUnits="userSpaceOnUse">
<stop stop-color="#682B07"/>
<stop offset="1" stop-color="#9C4B1C"/>
</linearGradient>
<linearGradient id="paint7_linear_51_636" x1="67.4082" y1="0" x2="67.4082" y2="135" gradientUnits="userSpaceOnUse">
<stop stop-color="#682B07"/>
<stop offset="1" stop-color="#9C4B1C"/>
</linearGradient>
<linearGradient id="paint8_linear_51_636" x1="67.4082" y1="0" x2="67.4082" y2="135" gradientUnits="userSpaceOnUse">
<stop stop-color="#682B07"/>
<stop offset="1" stop-color="#9C4B1C"/>
</linearGradient>
<linearGradient id="paint9_linear_51_636" x1="67.4082" y1="0" x2="67.4082" y2="135" gradientUnits="userSpaceOnUse">
<stop stop-color="#682B07"/>
<stop offset="1" stop-color="#9C4B1C"/>
</linearGradient>
<linearGradient id="paint10_linear_51_636" x1="67.4082" y1="0" x2="67.4082" y2="135" gradientUnits="userSpaceOnUse">
<stop stop-color="#682B07"/>
<stop offset="1" stop-color="#9C4B1C"/>
</linearGradient>
<linearGradient id="paint11_linear_51_636" x1="67.4082" y1="0" x2="67.4082" y2="135" gradientUnits="userSpaceOnUse">
<stop stop-color="#682B07"/>
<stop offset="1" stop-color="#9C4B1C"/>
</linearGradient>
</defs>
</svg>
