<svg width="92" height="135" viewBox="0 0 92 135" fill="none" xmlns="http://www.w3.org/2000/svg">
<path d="M41.3693 2.08445C38.231 3.66678 37.0179 4.43157 36.3322 5.22274C34.8026 7.01604 34.3807 9.46865 35.2246 11.6048C35.6465 12.6069 35.6465 12.7388 35.2246 13.5827C34.9345 14.242 34.8026 15.2178 34.8026 17.0902V19.6747L30.5303 19.8329C27.0492 19.9384 25.757 20.0966 23.8055 20.6504C18.7947 22.0218 14.3379 24.8963 11.1732 28.7467C9.85459 30.3818 9.64361 30.5136 8.45687 30.6718C6.90091 30.8828 5.60868 31.7004 4.89663 32.9398C4.47467 33.6519 4.34281 34.4431 4.2637 36.5001C4.10546 40.6933 4.87026 42.4602 7.24375 43.3832C8.32501 43.7788 8.43049 43.9107 8.43049 44.7018C8.43049 46.8907 7.08552 52.297 5.74054 55.3825C5.26584 56.5429 5.16035 56.622 4.02635 56.7803C2.41765 56.9912 1.28365 57.7297 0.545226 59.0483C-0.0613335 60.1295 -0.0613335 60.1559 0.0705272 68.0939C0.202388 76.6912 0.413365 78.6428 1.83746 83.9963C4.39556 93.6221 9.88096 102.905 17.0014 109.604C19.0585 111.555 23.0407 114.746 25.0449 116.038L25.7042 116.46L25.0449 119.203L24.3593 121.946L22.2231 122.078C19.8496 122.236 19.0585 122.605 17.9772 124.214C17.397 125.058 17.3706 125.295 17.4498 128.671C17.5289 131.914 17.5816 132.31 18.1354 133.101C18.4783 133.576 19.2167 134.182 19.7705 134.473C20.7727 135 21.432 135 45.6152 135C69.7985 135 70.4578 135 71.4599 134.473C72.0137 134.182 72.7521 133.576 73.095 133.101C73.6488 132.284 73.7015 131.994 73.7015 128.486C73.7015 125.137 73.6488 124.688 73.1477 124.029C72.0665 122.579 71.3017 122.21 69.0073 122.078L66.8711 121.946L66.1855 119.203L65.5262 116.46L66.1855 116.038C68.1106 114.799 72.2247 111.529 74.0971 109.762C81.244 103.037 86.8349 93.6221 89.393 83.9963C90.817 78.6428 91.028 76.6912 91.1599 68.0939C91.2917 60.1559 91.2917 60.1295 90.6852 59.0483C89.9468 57.7297 88.8128 56.9912 87.2041 56.7803C86.0701 56.622 85.9646 56.5429 85.4899 55.3825C84.1449 52.297 82.7999 46.8907 82.7999 44.7018C82.7999 43.9107 82.9054 43.7788 83.9867 43.3832C86.3602 42.4602 87.1249 40.6933 86.9667 36.5001C86.8876 34.4431 86.7557 33.6519 86.3338 32.9398C85.6217 31.7004 84.3295 30.8828 82.7735 30.6718C81.5868 30.5136 81.3758 30.3818 80.0572 28.7467C77.7365 25.8985 75.0993 23.8942 71.4072 22.1273C68.0051 20.4922 65.6844 19.9911 60.7264 19.8329L56.4278 19.6747V17.0902C56.4278 15.2178 56.2959 14.242 56.0058 13.5827C55.5839 12.7388 55.5839 12.6069 56.0058 11.6048C56.8497 9.44228 56.2959 6.64683 54.6345 4.90627C54.107 4.32608 45.9317 -0.0780635 45.5625 0.00105291C45.5097 0.00105291 43.6373 0.95045 41.3693 2.08445ZM48.9117 6.51497C52.1027 8.17641 52.5774 8.7566 51.8918 10.1807L51.5489 10.9191H39.6815L39.3386 10.1807C38.653 8.7566 39.1277 8.17641 42.3187 6.51497C43.9274 5.67106 45.4042 5.01176 45.6152 5.01176C45.8262 5.01176 47.303 5.67106 48.9117 6.51497ZM52.2082 19.7538H39.0222V15.5342H52.2082V19.7538ZM31.9808 24.5799C31.8753 24.7909 30.7677 26.215 29.5282 27.7445L27.2866 30.5664H21.3528L15.4191 30.54L16.8168 29.2477C19.0848 27.1116 22.566 25.2919 25.6779 24.6326C27.9195 24.1316 32.2709 24.1052 31.9808 24.5799ZM43.5054 30.5664H38.2046C33.1412 30.5664 32.9302 30.54 33.273 30.0917C33.4576 29.8279 34.5653 28.4038 35.7257 26.927L37.8354 24.2634L40.6836 24.237H43.5054V30.5664ZM55.5048 26.927C56.6651 28.4038 57.7728 29.8279 57.9574 30.0917C58.3002 30.54 58.0892 30.5664 53.0258 30.5664H47.725V24.237H50.5732L53.395 24.2634L55.5048 26.927ZM65.4207 24.6063C68.7436 25.3183 72.7785 27.4544 74.8619 29.617L75.7849 30.5664H63.9438L61.7022 27.7445C60.4627 26.215 59.3551 24.7909 59.2496 24.5799C58.9595 24.1052 63.0736 24.1052 65.4207 24.6063ZM82.5362 39.2692H8.69422V35.0496H82.5362V39.2692ZM18.6629 44.7282C18.5047 45.282 18.2146 46.0468 18.03 46.4424C17.2388 47.972 14.6016 48.4994 13.3093 47.3654C12.6764 46.838 12.65 46.6797 12.8083 45.2556L12.9929 43.7524H18.9266L18.6629 44.7282ZM26.9701 46.2841C25.9152 50.4509 24.6494 52.5607 22.0385 54.4859C19.8233 56.1209 17.4761 56.7803 14.5225 56.622C13.283 56.5429 11.8325 56.3056 11.3051 56.0682L10.3557 55.6726L11.015 53.642C11.6215 51.8487 11.7534 51.6377 12.2281 51.7959C12.5445 51.9014 13.4412 52.1124 14.2324 52.2706C18.0827 52.9827 21.9594 50.0554 22.9088 45.6776C23.0934 44.8337 23.3044 44.0689 23.3835 43.937C23.4362 43.8315 24.412 43.7524 25.5724 43.7524H27.6294L26.9701 46.2841ZM37.6772 44.7282C37.8091 45.282 38.02 46.0732 38.1255 46.5215C38.6002 48.5785 40.2617 50.5564 42.4506 51.6904C44.1384 52.5343 47.092 52.5343 48.7799 51.6904C50.9687 50.5564 52.6302 48.5785 53.1049 46.5215C53.2104 46.0732 53.4214 45.282 53.5532 44.7282L53.8169 43.7524H55.9267C57.8255 43.7524 58.0365 43.8052 57.9046 44.2007C57.8255 44.4645 57.509 45.6776 57.2189 46.8907C56.5069 49.6861 55.663 51.374 54.107 53.0354C49.571 57.8879 41.6594 57.8879 37.097 53.009C35.5674 51.374 34.7235 49.6861 34.0115 46.8907C33.7214 45.6776 33.4049 44.4645 33.3258 44.2007C33.1939 43.8052 33.4049 43.7524 35.3037 43.7524H37.4135L37.6772 44.7282ZM49.3073 43.8315C49.3073 43.8843 49.1227 44.5172 48.9117 45.2293C48.3315 47.1808 47.514 47.8401 45.6152 47.8401C43.7164 47.8401 42.8989 47.1808 42.3187 45.2293C42.1077 44.5172 41.9231 43.8843 41.9231 43.8315C41.9231 43.7788 43.5845 43.7524 45.6152 43.7524C47.6459 43.7524 49.3073 43.7788 49.3073 43.8315ZM68.3216 45.6776C69.1655 49.0796 71.1171 51.2421 74.0444 52.086C75.5212 52.5343 77.0772 52.4289 79.0023 51.7959C79.477 51.6377 79.6089 51.8487 80.2154 53.642L80.8747 55.6726L79.9254 56.0682C79.3979 56.3056 77.9474 56.5429 76.708 56.622C73.7543 56.7803 71.4072 56.1209 69.1919 54.4859C66.5811 52.5607 65.3152 50.4509 64.2603 46.2841L63.601 43.726L67.8733 43.8843L68.3216 45.6776ZM78.4221 45.2556C78.5804 46.6797 78.554 46.838 77.9211 47.3654C76.6288 48.4994 73.9916 47.972 73.2005 46.4424C73.0159 46.0468 72.7258 45.282 72.5675 44.7282L72.3038 43.7524H78.2375L78.4221 45.2556ZM33.3785 55.3034L34.5917 56.6748H26.3899L27.7349 54.8815C28.4733 53.9057 29.37 52.4816 29.7392 51.7168L30.3721 50.3191L31.2688 52.1124C31.7698 53.1145 32.7192 54.5386 33.3785 55.3034ZM61.8077 52.2706C62.3088 53.2728 63.2318 54.6441 63.8384 55.3825L64.9196 56.6748H56.6388L57.8519 55.3034C58.5112 54.5386 59.4606 53.1145 59.9353 52.1651C60.3836 51.1894 60.8056 50.4246 60.8319 50.4509C60.8319 50.4509 61.2803 51.2948 61.8077 52.2706ZM87.0195 65.3776H4.21095V61.158H87.0195V65.3776ZM86.8876 72.0233C86.5711 76.2429 86.1756 78.9856 85.3844 82.1239C82.2988 94.4397 74.7828 105.068 64.1548 112.135L62.2824 113.375H28.9744L27.1811 112.188C18.9793 106.835 12.3336 98.9229 8.40412 89.7454C6.13612 84.4183 4.79114 78.6955 4.34281 72.1552L4.18458 69.8608H87.0458L86.8876 72.0233ZM61.7813 119.493C62.045 120.548 62.2297 121.577 62.2297 121.735C62.2297 121.999 58.7222 122.078 45.6152 122.078C32.5083 122.078 29.0008 121.999 29.0008 121.735C29.0008 121.577 29.1854 120.548 29.4491 119.493L29.8974 117.594H61.333L61.7813 119.493ZM69.482 130.649H21.7484L21.5902 126.297H69.6402L69.482 130.649Z" fill="url(#paint0_linear_51_630)"/>
<path d="M42.0813 74.3441C41.0001 74.6869 39.6024 76.1374 39.2859 77.245C39.154 77.7461 39.0222 79.1966 39.0222 80.4624V82.7832H36.7278C33.8269 82.7832 32.7456 83.0733 31.7171 84.1545C30.5831 85.3676 30.3194 86.4225 30.3194 89.4817C30.3457 94.466 31.7698 95.9429 36.7014 95.9692H38.9694L39.0749 100.901C39.154 106.544 39.365 107.204 41.3429 108.311C42.2659 108.812 42.767 108.892 45.6152 108.892C48.4634 108.892 48.9645 108.812 49.8875 108.311C51.8654 107.204 52.0764 106.544 52.1555 100.901L52.261 95.9692H54.529C59.4606 95.9429 60.8847 94.466 60.911 89.4817C60.911 86.4225 60.6473 85.3676 59.5133 84.1545C58.4848 83.0733 57.4035 82.7832 54.529 82.7832H52.2082V80.4361C52.2082 79.1702 52.0764 77.7197 51.9181 77.2187C51.4962 75.9792 50.1776 74.6606 49.0436 74.3441C47.9096 74.0276 43.1362 74.0276 42.0813 74.3441ZM47.725 87.2664H56.4278V91.486H47.725V104.672H43.5054V91.486H34.8026V87.2664H43.5054V78.5636H47.725V87.2664Z" fill="url(#paint1_linear_51_630)"/>
<defs>
<linearGradient id="paint0_linear_51_630" x1="45.6152" y1="0" x2="45.6152" y2="135" gradientUnits="userSpaceOnUse">
<stop stop-color="#682B07"/>
<stop offset="1" stop-color="#9C4B1C"/>
</linearGradient>
<linearGradient id="paint1_linear_51_630" x1="45.6152" y1="0" x2="45.6152" y2="135" gradientUnits="userSpaceOnUse">
<stop stop-color="#682B07"/>
<stop offset="1" stop-color="#9C4B1C"/>
</linearGradient>
</defs>
</svg>
