<svg width="16" height="17" viewBox="0 0 16 17" fill="none" xmlns="http://www.w3.org/2000/svg">
<path id="whatsapp-icon" d="M13.601 2.82605C12.8675 2.08573 11.9939 1.49879 11.0313 1.09945C10.0687 0.700115 9.03617 0.496356 7.994 0.500049C3.627 0.500049 0.068 4.05805 0.064 8.42605C0.064 9.82505 0.43 11.186 1.121 12.391L0 16.5L4.204 15.398C5.367 16.031 6.66993 16.3627 7.994 16.363H7.998C12.366 16.363 15.924 12.805 15.928 8.43305C15.929 7.39109 15.7238 6.35924 15.3243 5.39693C14.9247 4.43462 14.3397 3.56088 13.601 2.82605ZM7.994 15.021C6.813 15.0214 5.6537 14.7036 4.638 14.101L4.398 13.957L1.904 14.611L2.57 12.1781L2.414 11.927C1.75381 10.8774 1.40465 9.66208 1.407 8.42205C1.407 4.79605 4.364 1.83805 7.998 1.83805C8.86374 1.8365 9.72123 2.00632 10.521 2.33774C11.3208 2.66916 12.0471 3.15561 12.658 3.76905C13.271 4.3801 13.757 5.10647 14.0879 5.90628C14.4188 6.70609 14.5881 7.56349 14.586 8.42905C14.582 12.068 11.625 15.021 7.994 15.021ZM11.609 10.087C11.412 9.98805 10.439 9.50905 10.256 9.44105C10.074 9.37605 9.941 9.34205 9.811 9.54005C9.678 9.73705 9.298 10.186 9.184 10.315C9.07 10.448 8.952 10.463 8.754 10.365C8.557 10.265 7.918 10.057 7.162 9.38005C6.572 8.85505 6.177 8.20505 6.059 8.00805C5.945 7.81005 6.048 7.70405 6.147 7.60505C6.234 7.51705 6.344 7.37305 6.443 7.25905C6.543 7.14505 6.576 7.06105 6.641 6.92905C6.706 6.79505 6.675 6.68105 6.626 6.58205C6.576 6.48305 6.181 5.50605 6.014 5.11205C5.854 4.72305 5.691 4.77705 5.569 4.77205C5.455 4.76505 5.322 4.76505 5.189 4.76505C5.08856 4.76755 4.98973 4.79078 4.89869 4.83328C4.80766 4.87579 4.7264 4.93665 4.66 5.01205C4.478 5.21005 3.969 5.68905 3.969 6.66605C3.969 7.64305 4.679 8.58205 4.779 8.71505C4.877 8.84805 6.173 10.847 8.162 11.707C8.632 11.912 9.002 12.033 9.291 12.125C9.766 12.2771 10.195 12.254 10.537 12.205C10.917 12.147 11.708 11.725 11.875 11.262C12.039 10.798 12.039 10.4021 11.989 10.319C11.94 10.2351 11.807 10.186 11.609 10.087Z" fill="#2C1000"/>
</svg>
