<svg width="32" height="33" viewBox="0 0 32 33" fill="none" xmlns="http://www.w3.org/2000/svg">
<path d="M27.325 4.67313C25.8513 3.18579 24.0963 2.00662 22.1623 1.20433C20.2283 0.40204 18.154 -0.00732149 16.0603 9.9107e-05C7.28679 9.9107e-05 0.136615 7.14826 0.128579 15.9238C0.128579 18.7344 0.863887 21.4687 2.25213 23.8896L0 32.1447L8.446 29.9308C10.7825 31.2023 13.4002 31.8688 16.0603 31.8695H16.0683C24.8438 31.8695 31.992 24.7213 32 15.9378C32.002 13.8445 31.5898 11.7714 30.7871 9.83812C29.9844 7.90481 28.8091 6.14943 27.325 4.67313ZM16.0603 29.1734C13.6876 29.1742 11.3585 28.5357 9.31793 27.3251L8.83576 27.0358L3.82521 28.3497L5.16323 23.4617L4.84982 22.9574C3.52347 20.8486 2.82199 18.407 2.82672 15.9157C2.82672 8.63093 8.76745 2.68819 16.0683 2.68819C17.8076 2.68507 19.5303 3.02626 21.1372 3.6921C22.744 4.35792 24.2031 5.33523 25.4304 6.56765C26.662 7.79527 27.6384 9.25459 28.3032 10.8614C28.968 12.4683 29.3081 14.1908 29.3039 15.9298C29.2958 23.2407 23.3551 29.1734 16.0603 29.1734ZM23.3229 19.2608C22.9272 19.0619 20.9724 18.0995 20.6047 17.9629C20.2391 17.8323 19.9719 17.764 19.7107 18.1618C19.4435 18.5576 18.6801 19.4597 18.451 19.7188C18.222 19.986 17.9849 20.0162 17.5871 19.8193C17.1914 19.6184 15.9076 19.2005 14.3887 17.8404C13.2034 16.7856 12.4098 15.4798 12.1728 15.084C11.9437 14.6862 12.1507 14.4732 12.3496 14.2743C12.5244 14.0975 12.7453 13.8082 12.9442 13.5792C13.1451 13.3502 13.2114 13.1814 13.342 12.9162C13.4726 12.647 13.4103 12.418 13.3119 12.2191C13.2114 12.0202 12.4179 10.0574 12.0824 9.26579C11.7609 8.48427 11.4334 8.59276 11.1883 8.58272C10.9593 8.56865 10.6921 8.56865 10.4249 8.56865C10.2231 8.57367 10.0246 8.62034 9.84167 8.70573C9.65878 8.79113 9.49552 8.9134 9.36213 9.06489C8.99648 9.46268 7.97388 10.425 7.97388 12.3878C7.97388 14.3507 9.4003 16.2372 9.6012 16.5044C9.79809 16.7716 12.4018 20.7876 16.3978 22.5154C17.342 22.9273 18.0854 23.1704 18.666 23.3552C19.6203 23.6606 20.4822 23.6144 21.1693 23.5159C21.9327 23.3994 23.5218 22.5516 23.8574 21.6214C24.1868 20.6892 24.1868 19.8936 24.0864 19.7269C23.9879 19.5581 23.7207 19.4597 23.3229 19.2608Z" fill="white"/>
</svg>
